<?xml version="1.0" encoding="utf-8"?>
<!-- Generator: Adobe Illustrator 14.0.0, SVG Export Plug-In . SVG Version: 6.00 Build 43363)  -->
<!DOCTYPE svg PUBLIC "-//W3C//DTD SVG 1.1//EN" "http://www.w3.org/Graphics/SVG/1.1/DTD/svg11.dtd">
<svg version="1.1"
	 id="Layer_1" inkscape:export-xdpi="147.69231" xmlns:dc="http://purl.org/dc/elements/1.1/" xmlns:svg="http://www.w3.org/2000/svg" xmlns:sodipodi="http://sodipodi.sourceforge.net/DTD/sodipodi-0.dtd" xmlns:cc="http://creativecommons.org/ns#" inkscape:export-ydpi="147.69231" xmlns:rdf="http://www.w3.org/1999/02/22-rdf-syntax-ns#" sodipodi:docname="logo-horizontal.svg" inkscape:version="0.91 r13258 custom" xmlns:inkscape="http://www.inkscape.org/namespaces/inkscape" inkscape:export-filename="/home/tigert/SparkleShare/atomic-design/social-media/askbot/atomic-ask-avatar.png"
	 xmlns="http://www.w3.org/2000/svg" xmlns:xlink="http://www.w3.org/1999/xlink" x="0px" y="0px" width="144px" height="39px"
	 viewBox="0 0 144 39" enable-background="new 0 0 144 39" xml:space="preserve">
<sodipodi:namedview  id="namedview65" inkscape:current-layer="Layer_1" pagecolor="#232323" inkscape:window-width="640" gridtolerance="10" fit-margin-top="3" inkscape:bbox-paths="true" inkscape:bbox-nodes="true" inkscape:pageshadow="2" showgrid="false" guidetolerance="10" bordercolor="#666666" inkscape:pageopacity="0" inkscape:window-height="480" inkscape:snap-bbox="true" fit-margin-left="3" inkscape:snap-center="true" fit-margin-bottom="3" fit-margin-right="3" objecttolerance="10" borderopacity="1" inkscape:snap-bbox-edge-midpoints="true" inkscape:snap-bbox-midpoints="true" inkscape:snap-object-midpoints="true">
	<inkscape:grid  opacity="0.12156863" id="grid3362" empopacity="0.29803922" empcolor="#61619e" type="xygrid" color="#61619e">
		</inkscape:grid>
</sodipodi:namedview>
<g id="g3" transform="translate(-1,1.5267493)" inkscape:export-xdpi="205.75999" inkscape:export-ydpi="205.75999" inkscape:export-filename="/home/tigert/SparkleShare/atomic-design/social-media/askbot/polygon4292-8.png">
	<path id="path5" inkscape:connector-curvature="0" fill="#6B6B6B" d="M67.281,32.835h-3.069l-0.525-3.513h-3.732l-0.526,3.513
		h-2.792l3.098-19.354h4.451L67.281,32.835z M60.341,26.697h2.93l-1.465-9.787L60.341,26.697z"/>
	<path id="path7" inkscape:connector-curvature="0" fill="#6B6B6B" d="M72.064,13.482h9.399v2.764h-3.179v16.588h-3.043V16.246
		h-3.178L72.064,13.482L72.064,13.482z"/>
	<path id="path9" inkscape:connector-curvature="0" fill="#6B6B6B" d="M87.85,18.126c0-3.097,1.633-4.865,4.617-4.865
		c2.986,0,4.617,1.769,4.617,4.865v10.062c0,3.098-1.631,4.867-4.617,4.867c-2.984,0-4.617-1.77-4.617-4.867V18.126z M90.893,28.383
		c0,1.381,0.607,1.906,1.574,1.906c0.969,0,1.576-0.525,1.576-1.906V17.932c0-1.383-0.607-1.907-1.576-1.907
		c-0.967,0-1.574,0.524-1.574,1.907V28.383z"/>
	<path id="path11" inkscape:connector-curvature="0" fill="#6B6B6B" d="M110.796,27.221l2.074-13.739h4.229v19.353h-2.875V18.956
		l-2.102,13.879h-2.876l-2.267-13.687v13.687h-2.653V13.482h4.229L110.796,27.221z"/>
	<path id="path13" inkscape:connector-curvature="0" fill="#6B6B6B" d="M124.62,13.482h3.041v19.353h-3.041V13.482z"/>
	<path id="path15" inkscape:connector-curvature="0" fill="#6B6B6B" d="M144,25.618v2.57c0,3.098-1.548,4.867-4.534,4.867
		c-2.985,0-4.534-1.77-4.534-4.867V18.126c0-3.097,1.549-4.865,4.534-4.865c2.986,0,4.534,1.769,4.534,4.865v1.88h-2.875v-2.074
		c0-1.383-0.607-1.907-1.576-1.907c-0.968,0-1.574,0.524-1.574,1.907v10.451c0,1.381,0.606,1.879,1.574,1.879
		c0.969,0,1.576-0.5,1.576-1.879v-2.767L144,25.618L144,25.618z"/>
</g>
<path id="path61" inkscape:export-xdpi="205.75999" inkscape:export-ydpi="205.75999" inkscape:export-filename="/home/tigert/SparkleShare/atomic-design/social-media/askbot/polygon4292-8.png" fill="#41D305" d="
	M24.128,22.861c-1.631,0-4.114-0.146-4.114-0.146c-0.261-0.015-0.349-0.2-0.194-0.411c0,0,1.541-2.121,2.658-3.451
	c0.552-0.654,1.333-1.519,1.333-1.519c0.175-0.194,0.46-0.194,0.636,0c0,0,0.778,0.865,1.331,1.519
	c1.119,1.33,2.66,3.451,2.66,3.451c0.153,0.211,0.065,0.396-0.194,0.411C28.243,22.716,25.758,22.861,24.128,22.861z"/>
<path id="path63" inkscape:export-xdpi="205.75999" inkscape:export-ydpi="205.75999" inkscape:export-filename="/home/tigert/SparkleShare/atomic-design/social-media/askbot/polygon4292-8.png" fill="#6B6B6B" d="
	M48.257,20.941c-0.01-2.363-5.732-4.394-13.979-5.317c-0.493-0.021-0.75,0.343-0.758,0.692c-0.014,0.279,0.18,0.622,0.529,0.679
	c0.065,0.011,0.122,0.024,0.195,0.036c6.645,0.694,11.168,2.057,11.176,3.63c0.007,1.534-4.277,2.877-10.644,3.603
	c-1.664-2.718-3.693-5.635-6.012-8.581c-1.093-1.39-2.195-2.712-3.29-3.963c5.646-6.279,10.621-10.094,12.06-8.968
	c1.112,0.871-0.155,4.552-2.996,9.384c-0.089,0.156-0.162,0.614,0.189,0.852c0.332,0.225,0.78,0.101,0.976-0.214
	c0.027-0.048,0.079-0.123,0.107-0.171c3.502-6.12,4.918-10.94,3.237-12.255c-2.054-1.607-8.089,2.492-14.649,9.58V9.925
	c-0.091,0.097-0.181,0.192-0.271,0.291c-0.09-0.099-0.181-0.194-0.27-0.291v0.002C17.298,2.839,11.262-1.26,9.208,0.347
	c-1.681,1.315-0.264,6.136,3.238,12.255c0.027,0.048,0.079,0.123,0.107,0.171c0.195,0.315,0.643,0.439,0.976,0.214
	c0.352-0.238,0.278-0.696,0.188-0.852c-2.841-4.832-4.108-8.514-2.996-9.384c1.438-1.125,6.414,2.689,12.06,8.968
	c-1.094,1.25-2.197,2.573-3.289,3.963c-2.318,2.945-4.349,5.863-6.012,8.582c-6.366-0.727-10.651-2.07-10.644-3.604
	c0.007-1.573,4.53-2.936,11.175-3.63c0.074-0.011,0.13-0.024,0.195-0.036c0.351-0.057,0.543-0.4,0.528-0.679
	c-0.006-0.35-0.264-0.714-0.757-0.692C5.731,16.548,0.01,18.578,0,20.941c-0.01,2.213,4.993,4.146,12.391,5.162
	c-3.467,6.08-4.857,10.856-3.183,12.168c1.812,1.416,6.729-1.609,12.367-7.213c0.188-0.17,0.305-0.625-0.037-0.959
	c-0.22-0.214-0.612-0.258-0.884-0.059c-0.106,0.078-0.207,0.178-0.281,0.248c-4.398,4.413-7.999,6.859-9.187,5.93
	c-1.155-0.9,0.251-4.769,3.318-9.855c2.87,0.309,6.031,0.482,9.354,0.496l0,0c0.047,0,0.092,0,0.139,0
	c0.036,0,0.071,0.002,0.107,0.002c0.008,0,0.016,0,0.023,0s0.017,0,0.023,0c0.036,0,0.072,0,0.108-0.002c0.046,0,0.092,0,0.139,0
	l0,0c3.321-0.012,6.482-0.188,9.353-0.496c3.067,5.088,4.474,8.955,3.318,9.855c-1.187,0.93-4.788-1.517-9.186-5.93
	c-0.074-0.07-0.176-0.17-0.281-0.248c-0.272-0.2-0.664-0.155-0.885,0.059c-0.341,0.334-0.225,0.789-0.036,0.959
	c5.64,5.604,10.555,8.629,12.366,7.213c1.674-1.311,0.284-6.088-3.182-12.168C43.263,25.088,48.267,23.154,48.257,20.941z
	 M24.205,24.828c-0.026,0-0.052,0-0.077,0s-0.051,0-0.076,0c-2.975-0.004-5.805-0.128-8.374-0.348
	c1.527-2.367,3.357-4.935,5.416-7.548c0.925-1.174,1.849-2.296,2.765-3.367v0.002c0.089-0.105,0.18-0.212,0.27-0.316
	c0.09,0.104,0.18,0.211,0.271,0.316v-0.002c0.915,1.071,1.84,2.192,2.764,3.367c2.06,2.615,3.889,5.182,5.416,7.548
	C30.01,24.699,27.18,24.824,24.205,24.828z"/>
<path id="path4280-8" inkscape:export-xdpi="205.75999" inkscape:export-ydpi="205.75999" inkscape:connector-curvature="0" inkscape:export-filename="/home/tigert/SparkleShare/atomic-design/social-media/askbot/polygon4292-8.png" fill="#46D200" d="
	M67.934,5.799c-0.041-0.145-0.108-0.272-0.196-0.37c-0.088-0.109-0.208-0.195-0.366-0.265c-0.131-0.056-0.291-0.099-0.486-0.126
	C66.701,5.013,66.482,5,66.234,5L63,5.003L63.003,10l1.11-0.001V8.294l1.791-0.001c0.317-0.001,0.572-0.014,0.787-0.041
	c0.222-0.029,0.416-0.073,0.571-0.132c0.174-0.067,0.315-0.157,0.417-0.265c0.105-0.111,0.186-0.244,0.238-0.399
	c0.041-0.133,0.066-0.279,0.075-0.434C67.998,6.894,68,6.751,68,6.602c-0.001-0.145-0.003-0.278-0.006-0.398
	C67.991,6.056,67.97,5.922,67.934,5.799L67.934,5.799z M66.886,6.924c-0.003,0.068-0.014,0.107-0.031,0.141
	c0,0-0.024,0.018-0.104,0.037c-0.08,0.018-0.185,0.031-0.317,0.039c-0.151,0.009-0.331,0.012-0.528,0.013l-1.793,0l0-1.011
	l1.791-0.002c0.213,0.002,0.393,0.005,0.537,0.008c0.129,0.004,0.236,0.015,0.317,0.031c0.083,0.019,0.112,0.039,0.111,0.031
	c0.006,0.008,0.014,0.036,0.017,0.099c0.005,0.08,0.006,0.179,0.004,0.292C66.891,6.724,66.89,6.83,66.886,6.924L66.886,6.924z"/>
<path id="path4282-9" inkscape:export-xdpi="205.75999" inkscape:export-ydpi="205.75999" inkscape:connector-curvature="0" inkscape:export-filename="/home/tigert/SparkleShare/atomic-design/social-media/askbot/polygon4292-8.png" fill="#46D200" d="
	M78.915,5.778c-0.05-0.147-0.132-0.273-0.235-0.375c-0.1-0.102-0.234-0.182-0.409-0.247c-0.149-0.053-0.331-0.093-0.554-0.119
	C77.5,5.013,77.242,5.001,76.953,5l-2.992,0.004L73.965,10l1.084,0l-0.002-1.705l1.83,0c0.189-0.001,0.362,0.003,0.519,0.011
	c0.118,0.005,0.225,0.021,0.307,0.04c0.079,0.019,0.103,0.038,0.11,0.047c0.006,0.017,0.016,0.06,0.021,0.131
	c0.005,0.091,0.007,0.197,0.005,0.323v1.152l1.084,0V8.846c-0.002-0.178-0.008-0.329-0.023-0.466
	c-0.02-0.163-0.059-0.311-0.12-0.442c-0.026-0.056-0.059-0.108-0.094-0.155c0.045-0.053,0.087-0.114,0.124-0.176
	c0.073-0.134,0.125-0.291,0.154-0.471C78.987,6.977,79,6.797,79,6.603c0-0.146-0.002-0.283-0.01-0.405
	C78.983,6.045,78.957,5.905,78.915,5.778L78.915,5.778z M76.953,7.154l-1.905,0.001V6.145l1.904-0.001
	c0.209-0.001,0.382,0.004,0.525,0.005c0.126,0.006,0.229,0.017,0.308,0.033c0.084,0.019,0.111,0.034,0.11,0.031
	c0.002,0.007,0.013,0.035,0.015,0.097c0.006,0.082,0.007,0.179,0.006,0.294c0.001,0.123-0.002,0.229-0.005,0.32
	c-0.005,0.069-0.013,0.108-0.028,0.142c0,0-0.024,0.019-0.103,0.036c-0.077,0.02-0.182,0.033-0.309,0.041
	C77.322,7.151,77.15,7.153,76.953,7.154L76.953,7.154z"/>
<path id="path4284-5" inkscape:export-xdpi="205.75999" inkscape:export-ydpi="205.75999" inkscape:connector-curvature="0" inkscape:export-filename="/home/tigert/SparkleShare/atomic-design/social-media/askbot/polygon4292-8.png" fill="#46D200" d="
	M89.934,6.209c-0.037-0.196-0.096-0.374-0.176-0.526c-0.088-0.165-0.213-0.301-0.367-0.405c-0.145-0.097-0.318-0.167-0.529-0.214
	C88.662,5.021,88.43,5,88.146,5l-1.296,0.002c-0.284-0.001-0.517,0.02-0.714,0.064c-0.213,0.046-0.387,0.118-0.529,0.213
	c-0.156,0.107-0.281,0.242-0.368,0.407c-0.081,0.153-0.141,0.331-0.177,0.531c-0.033,0.181-0.051,0.381-0.057,0.605
	C85.003,7.027,85,7.253,85,7.504c0.001,0.248,0.004,0.474,0.008,0.681c0.004,0.222,0.023,0.426,0.057,0.605
	c0.036,0.199,0.097,0.376,0.176,0.526c0.088,0.165,0.211,0.304,0.371,0.412c0.144,0.094,0.322,0.166,0.527,0.208
	C86.338,9.981,86.572,10,86.854,10l1.296-0.001c0.282,0.001,0.517-0.02,0.712-0.063c0.207-0.046,0.385-0.117,0.531-0.213
	c0.157-0.106,0.281-0.245,0.367-0.409c0.08-0.152,0.139-0.328,0.175-0.529c0.032-0.179,0.054-0.382,0.058-0.605
	C89.997,7.974,90,7.748,90,7.5c0.002-0.25-0.004-0.477-0.008-0.682C89.984,6.592,89.966,6.393,89.934,6.209L89.934,6.209z
	 M88.148,8.896l-1.295,0.001c-0.18,0.001-0.334-0.004-0.458-0.017c-0.106-0.011-0.187-0.031-0.243-0.058
	c-0.037-0.019-0.062-0.039-0.076-0.061c-0.017-0.029-0.037-0.083-0.053-0.183c-0.018-0.109-0.029-0.249-0.033-0.416
	c-0.002-0.183-0.006-0.404-0.006-0.661c-0.001-0.257,0.002-0.478,0.005-0.665C85.992,6.671,86,6.534,86.018,6.424
	c0.014-0.08,0.033-0.142,0.054-0.177c0.016-0.026,0.042-0.047,0.076-0.065c0.059-0.028,0.142-0.048,0.245-0.061
	c0.123-0.013,0.278-0.02,0.459-0.019l1.295-0.001c0.182-0.001,0.338,0.006,0.461,0.02c0.104,0.01,0.186,0.03,0.242,0.06
	c0.035,0.018,0.06,0.037,0.074,0.062c0.021,0.038,0.041,0.101,0.055,0.181c0.018,0.107,0.027,0.247,0.033,0.414
	c0.002,0.186,0.004,0.406,0.006,0.664c-0.002,0.257-0.002,0.477-0.006,0.66c-0.004,0.169-0.014,0.31-0.031,0.416
	c-0.018,0.1-0.039,0.154-0.053,0.179C88.912,8.781,88.886,8.8,88.847,8.82c-0.056,0.028-0.137,0.049-0.239,0.059
	C88.48,8.892,88.326,8.897,88.148,8.896L88.148,8.896z"/>
<path id="path4286-9" inkscape:export-xdpi="205.75999" inkscape:export-ydpi="205.75999" inkscape:connector-curvature="0" inkscape:export-filename="/home/tigert/SparkleShare/atomic-design/social-media/askbot/polygon4292-8.png" fill="#46D200" d="
	M99.737,8.388c0.001,0.111-0.011,0.204-0.032,0.276c-0.012,0.044-0.029,0.077-0.053,0.096c-0.028,0.026-0.076,0.048-0.137,0.062
	c-0.066,0.016-0.188,0.037-0.39,0.036l-1.391,0.001c-0.122,0.001-0.222-0.007-0.294-0.02c-0.021-0.005-0.023-0.01-0.031-0.015
	c-0.001-0.002-0.029-0.035-0.051-0.142c-0.021-0.107-0.035-0.264-0.036-0.465l-0.001-0.524l-1.359,0V8.22
	c0,0.291,0.019,0.53,0.055,0.736c0.044,0.24,0.138,0.442,0.28,0.604c0.149,0.166,0.356,0.288,0.61,0.355
	C97.128,9.972,97.398,10,97.736,10l1.39-0.001c0.331-0.001,0.61-0.027,0.845-0.081c0.264-0.061,0.484-0.162,0.652-0.3
	c0.176-0.143,0.303-0.327,0.375-0.544c0.066-0.193,0.1-0.42,0.098-0.678L101.095,5l-1.361,0L99.737,8.388L99.737,8.388z"/>
<polygon id="polygon4288-4" inkscape:export-xdpi="205.75999" inkscape:export-ydpi="205.75999" inkscape:export-filename="/home/tigert/SparkleShare/atomic-design/social-media/askbot/polygon4292-8.png" fill="#46D200" points="
	112.678,9.997 112.678,8.856 109.125,8.859 109.125,8.025 112.508,8.025 112.506,6.884 109.124,6.884 109.123,6.144 112.676,6.141 
	112.674,5 107.965,5.004 107.968,10 ">
</polygon>
<path id="path4290-5" inkscape:export-xdpi="205.75999" inkscape:export-ydpi="205.75999" inkscape:connector-curvature="0" inkscape:export-filename="/home/tigert/SparkleShare/atomic-design/social-media/askbot/polygon4292-8.png" fill="#46D200" d="
	M123.834,5.781c-0.068-0.144-0.156-0.269-0.266-0.369c-0.107-0.102-0.24-0.184-0.396-0.245c-0.143-0.058-0.314-0.1-0.502-0.127
	C122.484,5.013,122.271,5,122.033,5h-1.069c-0.3,0.001-0.548,0.022-0.756,0.066c-0.226,0.046-0.411,0.117-0.562,0.213
	c-0.165,0.105-0.296,0.242-0.392,0.407c-0.085,0.15-0.148,0.33-0.188,0.53c-0.035,0.183-0.053,0.386-0.059,0.607
	C119.004,7.027,119,7.253,119,7.504c-0.002,0.249,0.006,0.474,0.008,0.678c0.006,0.223,0.025,0.426,0.062,0.607
	c0.037,0.2,0.101,0.376,0.187,0.528c0.094,0.166,0.225,0.304,0.395,0.412c0.152,0.092,0.342,0.165,0.559,0.208
	c0.206,0.043,0.463,0.064,0.758,0.064l1.068-0.001c0.247,0,0.453-0.013,0.637-0.038c0.197-0.029,0.361-0.072,0.506-0.133
	c0.156-0.065,0.291-0.153,0.398-0.257c0.107-0.106,0.196-0.235,0.264-0.385c0.062-0.139,0.106-0.297,0.128-0.476
	c0.021-0.154,0.031-0.33,0.031-0.518L124,7.858l-1.043,0l0.001,0.333c0,0.132-0.006,0.245-0.015,0.337
	c-0.01,0.096-0.026,0.148-0.039,0.178c-0.012,0.029-0.026,0.052-0.045,0.069c-0.018,0.015-0.053,0.037-0.12,0.059
	s-0.157,0.04-0.269,0.048c-0.114,0.009-0.258,0.014-0.435,0.015l-1.069,0.001c-0.188,0.001-0.354-0.005-0.486-0.018
	c-0.111-0.011-0.198-0.031-0.258-0.06c-0.059-0.025-0.076-0.053-0.078-0.062c-0.02-0.026-0.043-0.081-0.06-0.182
	c-0.02-0.107-0.032-0.249-0.034-0.416c-0.004-0.183-0.006-0.404-0.006-0.66c0-0.259,0.002-0.48,0.004-0.665
	c0.004-0.167,0.014-0.307,0.033-0.414c0.013-0.078,0.033-0.142,0.057-0.178c0.017-0.026,0.043-0.047,0.081-0.064
	c0.062-0.028,0.148-0.048,0.26-0.06c0.13-0.013,0.294-0.02,0.485-0.02l1.07,0c0.219,0,0.4,0.008,0.541,0.026
	c0.141,0.014,0.215,0.052,0.256,0.078c0.025,0.017,0.057,0.045,0.08,0.118c0.02,0.061,0.045,0.178,0.045,0.396l-0.001,0.336
	L124,7.054l-0.002-0.334c0.002-0.174-0.01-0.337-0.031-0.488C123.941,6.062,123.896,5.913,123.834,5.781L123.834,5.781z"/>
<polygon id="polygon4292-8" inkscape:export-xdpi="205.75999" inkscape:export-ydpi="205.75999" inkscape:export-filename="/home/tigert/SparkleShare/atomic-design/social-media/askbot/polygon4292-8.png" fill="#46D200" points="
	136.031,5 131,5.004 131,6.145 132.959,6.144 132.96,10 134.076,9.999 134.076,6.143 136.031,6.141 ">
</polygon>
</svg>
