<?xml version="1.0" encoding="utf-8"?>
<!-- Generator: Adobe Illustrator 16.0.4, SVG Export Plug-In . SVG Version: 6.00 Build 0)  -->
<!DOCTYPE svg PUBLIC "-//W3C//DTD SVG 1.1//EN" "http://www.w3.org/Graphics/SVG/1.1/DTD/svg11.dtd">
<svg version="1.1" id="Layer_1" xmlns="http://www.w3.org/2000/svg" xmlns:xlink="http://www.w3.org/1999/xlink" x="0px" y="0px"
	 width="215px" height="43px" viewBox="0.518 3.652 215 43" enable-background="new 0.518 3.652 215 43" xml:space="preserve">
<g>
	<path fill="#FFFFFF" d="M40.645,17.677l-5.136-7.795l-3.377,2.229c-1.316-1.228-2.252-1.604-3.443-2.148l0.988-3.759l-9.166-2.55
		l-1.298,4.855c-0.837,0.124-1.812,0.387-2.427,0.515l-2.6-3.945l-8.274,5.455l2.629,3.994c-0.745,0.986-1.566,2.247-2.166,3.521
		l-4.598-0.673l-1.261,9.384l4.563,0.704c0.146,1.084,0.432,2.187,0.843,3.312l-3.371,2.221l5.132,7.789l3.641-2.397
		c1.017,0.729,2.298,1.562,3.569,2.123l-0.947,3.38l9.143,2.52l1.188-4.644c0.692-0.113,1.348-0.248,1.945-0.396l2.461,3.737
		l8.278-5.453l-2.425-3.685c0.727-1.017,1.836-2.538,2.485-3.981l4.757,0.678l1.273-9.392l-4.764-0.612
		c-0.152-1.015-0.296-1.842-0.725-2.956L40.645,17.677z M11.636,31.731c-3.649-5.537-2.12-12.982,3.42-16.632
		c5.538-3.646,12.984-2.116,16.632,3.425c3.646,5.534,2.115,12.981-3.423,16.632C22.728,38.802,15.286,37.267,11.636,31.731z"/>
	<path fill="#ED2224" d="M29.388,20.036c-2.847-4.319-8.66-5.511-12.979-2.669c-4.321,2.846-5.517,8.659-2.666,12.979
		c2.842,4.319,8.651,5.516,12.972,2.671C31.04,30.173,32.234,24.356,29.388,20.036z M24.751,30.029
		c-2.673,1.759-6.265,1.02-8.021-1.65c-1.761-2.67-1.026-6.265,1.646-8.024c2.671-1.76,6.266-1.022,8.026,1.652
		C28.161,24.675,27.421,28.269,24.751,30.029z"/>
</g>
<g>
	<path fill="#FFFFFF" d="M85.207,33.594c-0.672,1.675-1.607,3.087-2.808,4.233c-1.199,1.148-2.623,2.019-4.271,2.608
		c-1.647,0.591-3.447,0.885-5.398,0.885c-2.208,0-4.207-0.407-5.999-1.223c-1.792-0.816-3.335-1.977-4.63-3.479
		c-1.296-1.503-2.295-3.318-3-5.448c-0.705-2.126-1.056-4.518-1.056-7.172c0-2.559,0.368-4.902,1.104-7.03
		c0.736-2.127,1.76-3.95,3.072-5.47c1.312-1.52,2.879-2.704,4.702-3.551c1.824-0.848,3.839-1.272,6.047-1.272
		c1.728,0,3.254,0.192,4.583,0.576c1.326,0.384,2.502,0.944,3.527,1.679c1.023,0.736,1.912,1.625,2.664,2.664
		c0.75,1.04,1.398,2.2,1.943,3.479l-6.382,2.639c-0.32-0.606-0.665-1.183-1.032-1.727c-0.368-0.544-0.8-1.007-1.296-1.392
		c-0.497-0.384-1.08-0.688-1.751-0.911c-0.671-0.223-1.457-0.336-2.351-0.336c-1.248,0-2.369,0.264-3.359,0.792
		c-0.992,0.528-1.823,1.265-2.495,2.208c-0.672,0.944-1.184,2.064-1.536,3.359c-0.353,1.295-0.528,2.728-0.528,4.295
		c0,1.536,0.175,2.958,0.528,4.271c0.352,1.312,0.872,2.446,1.56,3.406c0.688,0.961,1.527,1.713,2.519,2.257
		c0.992,0.543,2.111,0.813,3.359,0.813c1.152,0,2.127-0.127,2.927-0.384c0.799-0.256,1.446-0.606,1.943-1.055
		c0.496-0.447,0.879-0.984,1.152-1.608c0.272-0.623,0.456-1.302,0.552-2.038h-5.327v-6.239h12.045v4.403
		C86.214,29.997,85.878,31.918,85.207,33.594z"/>
	<path fill="#FFFFFF" d="M92.539,40.795V7.204h23.274v6.574H99.208v5.758h9.646v6.575h-9.646v8.109h17.324v6.574H92.539z"/>
	<path fill="#FFFFFF" d="M145.551,40.795l-2.641-7.485h-12.283l-2.642,7.485h-7.196l12.859-33.591h6.526l12.765,33.591H145.551z
		 M138.448,20.832c-0.354-0.992-0.681-1.951-0.983-2.879c-0.305-0.927-0.536-1.71-0.696-2.351c-0.16,0.641-0.392,1.424-0.696,2.351
		c-0.305,0.928-0.632,1.888-0.982,2.879l-2.159,6.094h7.679L138.448,20.832z"/>
	<path fill="#FFFFFF" d="M177.339,40.795l-6.015-12.094h-6.781v12.094h-6.67V7.204h15.644c1.566,0,3.055,0.216,4.462,0.648
		c1.407,0.431,2.641,1.096,3.695,1.991c1.056,0.896,1.887,2.008,2.496,3.335c0.606,1.328,0.912,2.888,0.912,4.679
		c0,2.527-0.537,4.6-1.608,6.214c-1.072,1.616-2.68,2.839-4.823,3.67l6.432,13.054L177.339,40.795L177.339,40.795z M176.895,14.756
		c-0.852-0.651-2.03-0.979-3.54-0.979h-8.812v8.59h8.812c3.211,0,4.816-1.447,4.816-4.343
		C178.172,16.498,177.747,15.408,176.895,14.756z"/>
	<path fill="#ED1C24" d="M214.294,31.557c-0.812,2.159-1.941,3.927-3.382,5.303c-1.439,1.375-3.137,2.375-5.086,2.999
		c-1.953,0.624-4.049,0.937-6.288,0.937h-8.204V7.204h8.876c2.209,0,4.247,0.32,6.12,0.959c1.87,0.641,3.484,1.641,4.846,3
		c1.359,1.361,2.425,3.08,3.19,5.159c0.768,2.081,1.151,4.558,1.151,7.438C215.52,26.799,215.111,29.398,214.294,31.557z
		 M208.753,14.018c-2.017-2.271-4.96-3.407-8.83-3.407h-4.847v26.777h4.941c1.824,0,3.454-0.248,4.896-0.744
		c1.439-0.496,2.671-1.288,3.694-2.376c1.022-1.087,1.808-2.486,2.351-4.198c0.545-1.711,0.816-3.767,0.816-6.167
		C211.776,19.584,210.769,16.289,208.753,14.018z"/>
</g>
</svg>
