<?xml version="1.0" encoding="utf-8"?>
<!-- Generator: Adobe Illustrator 16.0.4, SVG Export Plug-In . SVG Version: 6.00 Build 0)  -->
<!DOCTYPE svg PUBLIC "-//W3C//DTD SVG 1.1//EN" "http://www.w3.org/Graphics/SVG/1.1/DTD/svg11.dtd">
<svg version="1.1" id="Layer_1" xmlns="http://www.w3.org/2000/svg" xmlns:xlink="http://www.w3.org/1999/xlink" x="0px" y="0px"
	 width="288px" height="60px" viewBox="0 0 288 60" enable-background="new 0 0 288 60" xml:space="preserve">
<g>
	<g>
		<g>
			<path d="M53.615,32.179c0.074-0.77,0.114-1.546,0.114-2.333c0-0.978-0.062-1.94-0.174-2.885l4.499-4.155
				c-0.782-3.216-2.089-6.224-3.824-8.933l-6.103,0.381c-1.111-1.346-2.367-2.564-3.735-3.647l0.243-6.126
				c-2.744-1.67-5.783-2.901-9.018-3.611l-4.052,4.59c-0.767-0.073-1.545-0.113-2.334-0.113c-0.975,0-1.937,0.064-2.883,0.174
				l-4.157-4.501c-3.215,0.783-6.223,2.09-8.933,3.825l0.381,6.103c-1.344,1.11-2.564,2.367-3.646,3.737l-6.126-0.244
				c-1.67,2.744-2.901,5.783-3.61,9.018l4.59,4.051c-0.074,0.769-0.115,1.546-0.115,2.335c0,0.977,0.064,1.938,0.176,2.882
				l-4.5,4.156c0.783,3.215,2.09,6.224,3.825,8.933l6.102-0.381c1.111,1.345,2.368,2.563,3.737,3.643l-0.244,6.129
				c2.745,1.671,5.784,2.901,9.018,3.611l4.05-4.59c0.768,0.073,1.547,0.112,2.334,0.112c0.977,0,1.938-0.062,2.884-0.172
				l4.155,4.498c3.216-0.782,6.225-2.09,8.935-3.825l-0.38-6.104c1.344-1.107,2.562-2.366,3.644-3.735l6.127,0.243
				c1.67-2.744,2.9-5.783,3.61-9.017L53.615,32.179z M29.231,50.259c-11.273,0-20.414-9.138-20.414-20.413
				c0-11.277,9.14-20.416,20.414-20.416c11.274,0,20.415,9.138,20.415,20.416C49.646,41.121,40.506,50.259,29.231,50.259z"/>
		</g>
	</g>
	<g>
		<g>
			<path fill="#CA2027" d="M29.231,13.106c-9.245,0-16.74,7.495-16.74,16.74c0,9.243,7.495,16.738,16.74,16.738
				c9.245,0,16.741-7.495,16.741-16.738C45.973,20.601,38.477,13.106,29.231,13.106z M29.231,42.229
				c-6.839,0-12.384-5.543-12.384-12.384c0-6.842,5.545-12.385,12.384-12.385s12.385,5.543,12.385,12.385
				C41.617,36.687,36.071,42.229,29.231,42.229z"/>
		</g>
	</g>
</g>
<g>
	<path fill="#231F20" d="M107.59,41.182c-0.89,2.218-2.129,4.088-3.718,5.609c-1.589,1.521-3.475,2.672-5.655,3.453
		c-2.183,0.781-4.566,1.173-7.149,1.173c-2.923,0-5.572-0.54-7.944-1.621c-2.373-1.08-4.417-2.615-6.133-4.606
		s-3.04-4.396-3.972-7.213c-0.932-2.817-1.398-5.984-1.398-9.501c0-3.389,0.486-6.492,1.461-9.31
		c0.974-2.817,2.33-5.232,4.067-7.245c1.737-2.012,3.813-3.58,6.228-4.703c2.416-1.122,5.084-1.684,8.007-1.684
		c2.288,0,4.311,0.254,6.069,0.763c1.757,0.508,3.314,1.25,4.671,2.224c1.355,0.975,2.53,2.151,3.526,3.527
		c0.995,1.377,1.854,2.913,2.574,4.607l-8.452,3.495c-0.424-0.804-0.88-1.566-1.366-2.288c-0.487-0.72-1.06-1.334-1.716-1.843
		c-0.657-0.508-1.43-0.911-2.319-1.208c-0.891-0.296-1.929-0.445-3.114-0.445c-1.652,0-3.136,0.35-4.448,1.048
		c-1.314,0.699-2.415,1.674-3.305,2.923c-0.89,1.25-1.568,2.733-2.034,4.449c-0.467,1.716-0.699,3.612-0.699,5.688
		c0,2.033,0.232,3.919,0.699,5.656c0.466,1.737,1.154,3.24,2.065,4.512c0.911,1.271,2.023,2.267,3.336,2.986
		c1.312,0.722,2.796,1.081,4.448,1.081c1.525,0,2.817-0.169,3.877-0.509c1.058-0.339,1.916-0.805,2.573-1.398
		c0.656-0.593,1.165-1.303,1.525-2.129c0.359-0.826,0.604-1.726,0.73-2.7h-7.054v-8.262h15.951v5.831
		C108.925,36.417,108.479,38.963,107.59,41.182z"/>
	<path fill="#231F20" d="M116.97,50.718V6.233h30.821v8.706h-21.988v7.626h12.773v8.706h-12.773v10.74h22.941v8.706H116.97z"/>
	<path fill="#231F20" d="M186.848,50.718l-3.495-9.914h-16.269l-3.495,9.914h-9.532l17.031-44.484h8.643l16.904,44.484H186.848z
		 M177.442,24.281c-0.467-1.312-0.9-2.584-1.303-3.812c-0.403-1.229-0.71-2.266-0.921-3.114c-0.213,0.848-0.52,1.886-0.922,3.114
		c-0.403,1.229-0.837,2.5-1.303,3.812l-2.859,8.071h10.168L177.442,24.281z"/>
	<path fill="#231F20" d="M228.595,50.718l-7.962-16.015h-8.981v16.015h-8.833V6.233h20.717c2.075,0,4.045,0.286,5.91,0.858
		c1.863,0.572,3.495,1.452,4.894,2.637c1.397,1.187,2.499,2.659,3.304,4.417c0.805,1.759,1.208,3.824,1.208,6.196
		c0,3.348-0.71,6.091-2.129,8.23c-1.42,2.14-3.549,3.76-6.387,4.861l8.516,17.285H228.595z M228.01,16.235
		c-1.128-0.864-2.69-1.296-4.688-1.296h-11.67v11.375h11.67c4.252,0,6.378-1.916,6.378-5.751
		C229.699,18.542,229.136,17.099,228.01,16.235z"/>
	<path fill="#EC1C24" d="M280.925,38.548c-1.293,2.818-3.009,5.127-5.147,6.927c-2.14,1.802-4.575,3.125-7.309,3.973
		c-2.732,0.848-5.519,1.271-8.356,1.271h-13.281V6.233h13.917c3.178,0,6.11,0.392,8.802,1.176c2.689,0.784,5.021,2.065,6.99,3.845
		s3.516,4.078,4.639,6.895c1.122,2.818,1.685,6.259,1.685,10.327C282.863,32.374,282.217,35.731,280.925,38.548z M270.587,18.324
		c-2.083-2.256-5.484-3.384-10.203-3.384h-4.72v27.072h4.4c2.338,0,4.368-0.327,6.09-0.98s3.135-1.57,4.241-2.751
		c1.105-1.181,1.935-2.604,2.487-4.27c0.552-1.666,0.829-3.511,0.829-5.535C273.712,23.964,272.671,20.58,270.587,18.324z"/>
</g>
</svg>
