<?xml version="1.0" encoding="utf-8"?>
<!-- Generator: Adobe Illustrator 16.0.4, SVG Export Plug-In . SVG Version: 6.00 Build 0)  -->
<!DOCTYPE svg PUBLIC "-//W3C//DTD SVG 1.1//EN" "http://www.w3.org/Graphics/SVG/1.1/DTD/svg11.dtd">
<svg version="1.1" id="Layer_1" xmlns="http://www.w3.org/2000/svg" xmlns:xlink="http://www.w3.org/1999/xlink" x="0px" y="0px"
	 width="288px" height="60px" viewBox="0 0 288 60" enable-background="new 0 0 288 60" xml:space="preserve">
<g>
	<path d="M107.59,41.182c-0.89,2.219-2.129,4.088-3.718,5.609s-3.475,2.672-5.655,3.453c-2.183,0.781-4.566,1.173-7.149,1.173
		c-2.923,0-5.572-0.54-7.944-1.621c-2.373-1.08-4.417-2.614-6.133-4.606c-1.716-1.989-3.04-4.396-3.972-7.213
		c-0.932-2.815-1.398-5.982-1.398-9.5c0-3.389,0.486-6.492,1.461-9.31c0.974-2.817,2.33-5.232,4.067-7.245
		c1.737-2.012,3.813-3.58,6.228-4.703c2.416-1.122,5.084-1.684,8.007-1.684c2.288,0,4.311,0.254,6.069,0.763
		c1.757,0.508,3.314,1.25,4.671,2.224c1.355,0.975,2.53,2.151,3.526,3.527c0.995,1.377,1.854,2.913,2.574,4.607l-8.452,3.495
		c-0.424-0.804-0.88-1.566-1.366-2.288c-0.487-0.72-1.06-1.334-1.716-1.843c-0.657-0.508-1.43-0.911-2.319-1.208
		c-0.891-0.296-1.929-0.445-3.114-0.445c-1.652,0-3.136,0.35-4.448,1.048c-1.314,0.699-2.415,1.674-3.305,2.923
		c-0.89,1.25-1.568,2.733-2.034,4.449c-0.467,1.716-0.699,3.612-0.699,5.688c0,2.033,0.232,3.917,0.699,5.656
		c0.466,1.737,1.154,3.24,2.065,4.514c0.911,1.271,2.023,2.267,3.336,2.984c1.312,0.723,2.796,1.081,4.448,1.081
		c1.525,0,2.817-0.169,3.877-0.509c1.058-0.34,1.916-0.807,2.573-1.398c0.656-0.593,1.165-1.303,1.525-2.129
		c0.359-0.824,0.604-1.726,0.73-2.699H92.97v-8.263h15.951v5.831C108.925,36.417,108.479,38.963,107.59,41.182z"/>
	<path d="M116.97,50.718V6.233h30.821v8.706h-21.988v7.626h12.773v8.707h-12.773v10.739h22.941v8.706L116.97,50.718L116.97,50.718z"
		/>
	<path d="M186.848,50.718l-3.494-9.913h-16.27l-3.495,9.913h-9.532l17.031-44.484h8.643l16.904,44.484H186.848z M177.441,24.281
		c-0.467-1.312-0.899-2.584-1.303-3.812c-0.402-1.229-0.709-2.266-0.922-3.114c-0.213,0.848-0.52,1.886-0.922,3.114
		c-0.402,1.229-0.837,2.5-1.303,3.812l-2.859,8.07h10.17L177.441,24.281z"/>
	<path d="M228.596,50.718l-7.963-16.015h-8.98v16.015h-8.834V6.233h20.719c2.074,0,4.045,0.286,5.908,0.858
		c1.863,0.572,3.496,1.452,4.896,2.637c1.396,1.187,2.499,2.659,3.306,4.417c0.805,1.759,1.207,3.824,1.207,6.196
		c0,3.348-0.709,6.091-2.129,8.23c-1.42,2.14-3.55,3.76-6.388,4.861l8.517,17.285L228.596,50.718L228.596,50.718z M228.01,16.235
		c-1.128-0.864-2.689-1.296-4.688-1.296h-11.67v11.375h11.67c4.252,0,6.378-1.916,6.378-5.751
		C229.699,18.542,229.137,17.099,228.01,16.235z"/>
	<path fill="#EF2E32" d="M280.925,38.548c-1.293,2.818-3.009,5.127-5.147,6.927c-2.139,1.803-4.573,3.125-7.309,3.975
		c-2.732,0.848-5.519,1.271-8.355,1.271h-13.28V6.233h13.917c3.178,0,6.109,0.392,8.802,1.176c2.689,0.784,5.021,2.065,6.99,3.845
		c1.969,1.78,3.517,4.078,4.64,6.895c1.121,2.818,1.686,6.259,1.686,10.327C282.863,32.374,282.217,35.73,280.925,38.548z
		 M270.587,18.324c-2.083-2.256-5.483-3.384-10.203-3.384h-4.72v27.072h4.4c2.338,0,4.367-0.326,6.09-0.979
		c1.722-0.653,3.135-1.57,4.24-2.751c1.104-1.183,1.936-2.604,2.486-4.271s0.829-3.511,0.829-5.535
		C273.712,23.964,272.671,20.58,270.587,18.324z"/>
</g>
<g>
	<g>
		<g>
			<g>
				<g>
					<path d="M53.896,32.512c-0.407-0.369-0.708-1.121-0.668-1.67c0,0,0.041-0.569,0.041-1.366c0-0.99-0.083-1.924-0.083-1.924
						c-0.049-0.548,0.237-1.307,0.636-1.686l2.967-2.828c0.398-0.379,0.584-1.118,0.414-1.641l-2.985-7.205
						c-0.252-0.489-0.907-0.86-1.456-0.824l-3.992,0.257c-0.549,0.036-1.298-0.271-1.665-0.681l-2.257-2.276
						c-0.408-0.369-0.724-1.121-0.703-1.67l0.162-4.204c0.021-0.55-0.361-1.207-0.85-1.459l-7.008-2.893
						c-0.524-0.167-1.245,0.038-1.603,0.456l-2.675,3.128c-0.357,0.418-1.099,0.726-1.647,0.685c0,0-0.52-0.039-1.293-0.039
						c-0.957,0-1.833,0.082-1.833,0.082c-0.547,0.051-1.296-0.242-1.663-0.652l-2.744-3.066c-0.367-0.41-1.092-0.598-1.612-0.417
						l-6.944,3.064c-0.482,0.265-0.849,0.931-0.816,1.479l0.252,4.183c0.033,0.549-0.265,1.309-0.664,1.688l-2.204,2.331
						c-0.356,0.419-1.097,0.744-1.646,0.722L5.345,13.92c-0.549-0.022-1.196,0.364-1.436,0.858L1.09,22.053
						c-0.158,0.527,0.045,1.261,0.452,1.631l3.024,2.754c0.407,0.371,0.707,1.122,0.668,1.671c0,0-0.041,0.569-0.041,1.367
						c0,0.989,0.083,1.924,0.083,1.924c0.049,0.548-0.237,1.307-0.635,1.687l-2.966,2.826c-0.398,0.38-0.585,1.118-0.415,1.642
						l2.985,7.206c0.252,0.488,0.907,0.859,1.456,0.824l3.991-0.257c0.549-0.035,1.298,0.271,1.665,0.681l2.257,2.273
						c0.408,0.368,0.725,1.12,0.703,1.67l-0.162,4.206c-0.021,0.55,0.361,1.206,0.85,1.459l7.008,2.894
						c0.524,0.167,1.245-0.038,1.603-0.456l2.674-3.128c0.357-0.418,1.099-0.726,1.647-0.685c0,0,0.521,0.039,1.294,0.039
						c0.958,0,1.834-0.082,1.834-0.082c0.547-0.053,1.296,0.24,1.663,0.65l2.744,3.065c0.367,0.41,1.092,0.599,1.612,0.418
						l6.944-3.063c0.482-0.266,0.849-0.932,0.816-1.479l-0.252-4.185c-0.033-0.549,0.265-1.309,0.664-1.688l2.204-2.331
						c0.356-0.42,1.097-0.744,1.646-0.722l4.014,0.164c0.549,0.022,1.196-0.362,1.436-0.857l2.818-7.273
						c0.158-0.526-0.045-1.26-0.452-1.631L53.896,32.512z M29.231,50.146C18.169,50.146,9.2,40.893,9.2,29.475
						c0-11.417,8.969-20.671,20.031-20.671s20.031,9.255,20.031,20.672C49.262,40.893,40.293,50.146,29.231,50.146z"/>
					<path d="M53.896,32.512c-0.407-0.369-0.708-1.121-0.668-1.67c0,0,0.041-0.569,0.041-1.366c0-0.99-0.083-1.924-0.083-1.924
						c-0.049-0.548,0.237-1.307,0.636-1.686l2.967-2.828c0.398-0.379,0.584-1.118,0.414-1.641l-2.985-7.205
						c-0.252-0.489-0.907-0.86-1.456-0.824l-3.992,0.257c-0.549,0.036-1.298-0.271-1.665-0.681l-2.257-2.276
						c-0.408-0.369-0.724-1.121-0.703-1.67l0.162-4.204c0.021-0.55-0.361-1.207-0.85-1.459l-7.008-2.893
						c-0.524-0.167-1.245,0.038-1.603,0.456l-2.675,3.128c-0.357,0.418-1.099,0.726-1.647,0.685c0,0-0.52-0.039-1.293-0.039
						c-0.957,0-1.833,0.082-1.833,0.082c-0.547,0.051-1.296-0.242-1.663-0.652l-2.744-3.066c-0.367-0.41-1.092-0.598-1.612-0.417
						l-6.944,3.064c-0.482,0.265-0.849,0.931-0.816,1.479l0.252,4.183c0.033,0.549-0.265,1.309-0.664,1.688l-2.204,2.331
						c-0.356,0.419-1.097,0.744-1.646,0.722L5.345,13.92c-0.549-0.022-1.196,0.364-1.436,0.858L1.09,22.053
						c-0.158,0.527,0.045,1.261,0.452,1.631l3.024,2.754c0.407,0.371,0.707,1.122,0.668,1.671c0,0-0.041,0.569-0.041,1.367
						c0,0.989,0.083,1.924,0.083,1.924c0.049,0.548-0.237,1.307-0.635,1.687l-2.966,2.826c-0.398,0.38-0.585,1.118-0.415,1.642
						l2.985,7.206c0.252,0.488,0.907,0.859,1.456,0.824l3.991-0.257c0.549-0.035,1.298,0.271,1.665,0.681l2.257,2.273
						c0.408,0.368,0.725,1.12,0.703,1.67l-0.162,4.206c-0.021,0.55,0.361,1.206,0.85,1.459l7.008,2.894
						c0.524,0.167,1.245-0.038,1.603-0.456l2.674-3.128c0.357-0.418,1.099-0.726,1.647-0.685c0,0,0.521,0.039,1.294,0.039
						c0.958,0,1.834-0.082,1.834-0.082c0.547-0.053,1.296,0.24,1.663,0.65l2.744,3.065c0.367,0.41,1.092,0.599,1.612,0.418
						l6.944-3.063c0.482-0.266,0.849-0.932,0.816-1.479l-0.252-4.185c-0.033-0.549,0.265-1.309,0.664-1.688l2.204-2.331
						c0.356-0.42,1.097-0.744,1.646-0.722l4.014,0.164c0.549,0.022,1.196-0.362,1.436-0.857l2.818-7.273
						c0.158-0.526-0.045-1.26-0.452-1.631L53.896,32.512z M29.231,50.146C18.169,50.146,9.2,40.893,9.2,29.475
						c0-11.417,8.969-20.671,20.031-20.671s20.031,9.255,20.031,20.672C49.262,40.893,40.293,50.146,29.231,50.146z"/>
				</g>
			</g>
		</g>
		<g>
			<g>
				<g>
					<path fill="#CA2027" d="M29.231,12.525c-9.071,0-16.426,7.59-16.426,16.95s7.354,16.95,16.426,16.95
						c9.072,0,16.426-7.59,16.426-16.95S38.303,12.525,29.231,12.525z M29.231,42.018c-6.711,0-12.152-5.615-12.152-12.542
						c0-6.927,5.441-12.541,12.152-12.541s12.152,5.614,12.152,12.541C41.383,36.402,35.942,42.018,29.231,42.018z"/>
					<path fill="#EF2E32" d="M29.231,12.525c-9.071,0-16.426,7.59-16.426,16.95s7.354,16.95,16.426,16.95
						c9.072,0,16.426-7.59,16.426-16.95S38.303,12.525,29.231,12.525z M29.231,42.018c-6.711,0-12.152-5.615-12.152-12.542
						c0-6.927,5.441-12.541,12.152-12.541s12.152,5.614,12.152,12.541C41.383,36.402,35.942,42.018,29.231,42.018z"/>
				</g>
			</g>
		</g>
	</g>
</g>
</svg>
