<?xml version="1.0" encoding="utf-8"?>
<!-- Generator: Adobe Illustrator 16.0.4, SVG Export Plug-In . SVG Version: 6.00 Build 0)  -->
<!DOCTYPE svg PUBLIC "-//W3C//DTD SVG 1.1//EN" "http://www.w3.org/Graphics/SVG/1.1/DTD/svg11.dtd">
<svg version="1.1" id="Layer_1" xmlns="http://www.w3.org/2000/svg" xmlns:xlink="http://www.w3.org/1999/xlink" x="0px" y="0px"
	 width="170px" height="36px" viewBox="3.746 3.746 170 36" enable-background="new 3.746 3.746 170 36" xml:space="preserve">
<g display="none">
	<path display="inline" fill="#231F20" d="M40.645,17.677l-5.136-7.795l-3.377,2.229c-1.316-1.228-2.252-1.604-3.443-2.148
		l0.988-3.759l-9.166-2.55l-1.298,4.855c-0.837,0.124-1.812,0.387-2.427,0.515l-2.6-3.945l-8.274,5.455l2.629,3.994
		c-0.745,0.986-1.566,2.247-2.166,3.521l-4.598-0.673L0.516,26.76l4.563,0.704c0.146,1.084,0.432,2.187,0.843,3.312l-3.371,2.222
		l5.132,7.789l3.641-2.397c1.017,0.729,2.298,1.562,3.569,2.123l-0.947,3.381l9.143,2.52l1.188-4.645
		c0.692-0.112,1.348-0.248,1.945-0.396l2.461,3.737l8.278-5.453l-2.425-3.686c0.727-1.017,1.836-2.537,2.485-3.98l4.757,0.678
		l1.273-9.393l-4.764-0.611c-0.152-1.015-0.296-1.842-0.725-2.956L40.645,17.677z M11.636,31.73
		c-3.649-5.537-2.12-12.981,3.42-16.631c5.538-3.646,12.984-2.116,16.632,3.425c3.646,5.535,2.115,12.981-3.423,16.632
		C22.728,38.802,15.286,37.268,11.636,31.73z"/>
	<path display="inline" fill="#ED2224" d="M29.388,20.036c-2.847-4.319-8.66-5.511-12.979-2.669
		c-4.321,2.846-5.517,8.658-2.666,12.979c2.842,4.319,8.651,5.516,12.972,2.672C31.04,30.173,32.234,24.355,29.388,20.036z
		 M24.751,30.029c-2.673,1.759-6.265,1.02-8.021-1.65c-1.761-2.67-1.026-6.265,1.646-8.024c2.671-1.76,6.266-1.022,8.026,1.652
		C28.161,24.675,27.421,28.27,24.751,30.029z"/>
</g>
<g display="none">
	<path display="inline" fill="#231F20" d="M85.207,33.594c-0.672,1.676-1.607,3.088-2.808,4.233
		c-1.199,1.147-2.623,2.019-4.271,2.608c-1.647,0.59-3.447,0.885-5.398,0.885c-2.208,0-4.207-0.407-5.999-1.223
		c-1.792-0.816-3.335-1.978-4.63-3.479c-1.296-1.503-2.295-3.318-3-5.448c-0.705-2.126-1.056-4.518-1.056-7.172
		c0-2.559,0.368-4.902,1.104-7.03c0.736-2.127,1.76-3.95,3.072-5.47s2.879-2.704,4.702-3.551c1.824-0.848,3.839-1.272,6.047-1.272
		c1.728,0,3.254,0.192,4.583,0.576c1.326,0.384,2.502,0.944,3.527,1.679c1.023,0.736,1.912,1.625,2.664,2.664
		c0.75,1.04,1.398,2.2,1.943,3.479l-6.382,2.639c-0.32-0.606-0.665-1.183-1.032-1.727c-0.368-0.544-0.8-1.007-1.296-1.392
		c-0.497-0.384-1.08-0.688-1.751-0.911s-1.457-0.336-2.351-0.336c-1.248,0-2.369,0.264-3.359,0.792
		c-0.992,0.528-1.823,1.265-2.495,2.208c-0.672,0.944-1.184,2.064-1.536,3.359C65.132,21,64.957,22.434,64.957,24
		c0,1.536,0.175,2.958,0.528,4.271c0.352,1.312,0.872,2.445,1.56,3.405c0.688,0.962,1.527,1.714,2.519,2.257
		s2.111,0.813,3.359,0.813c1.152,0,2.127-0.127,2.927-0.384c0.799-0.256,1.446-0.606,1.943-1.055
		c0.496-0.447,0.879-0.984,1.152-1.608c0.272-0.623,0.456-1.302,0.552-2.038H74.17v-6.239h12.045v4.403
		C86.214,29.997,85.878,31.918,85.207,33.594z"/>
	<path display="inline" fill="#231F20" d="M92.539,40.795V7.204h23.273v6.574H99.208v5.758h9.646v6.575h-9.646v8.108h17.324v6.574
		L92.539,40.795L92.539,40.795z"/>
	<path display="inline" fill="#231F20" d="M145.551,40.795l-2.641-7.484h-12.283l-2.643,7.484h-7.195l12.859-33.591h6.525
		l12.766,33.591H145.551z M138.448,20.832c-0.354-0.992-0.681-1.951-0.983-2.879c-0.305-0.927-0.535-1.71-0.695-2.351
		c-0.16,0.641-0.393,1.424-0.696,2.351c-0.306,0.928-0.632,1.888-0.982,2.879l-2.159,6.094h7.68L138.448,20.832z"/>
	<path display="inline" fill="#231F20" d="M177.339,40.795l-6.015-12.094h-6.781v12.094h-6.67V7.204h15.645
		c1.565,0,3.055,0.216,4.461,0.648c1.408,0.431,2.642,1.096,3.695,1.991c1.057,0.896,1.887,2.008,2.496,3.335
		c0.605,1.328,0.912,2.888,0.912,4.679c0,2.527-0.537,4.6-1.607,6.213c-1.072,1.617-2.681,2.84-4.824,3.671l6.433,13.054H177.339
		L177.339,40.795z M176.895,14.756c-0.852-0.651-2.029-0.979-3.539-0.979h-8.812v8.59h8.812c3.211,0,4.815-1.447,4.815-4.343
		C178.172,16.498,177.747,15.408,176.895,14.756z"/>
	<path display="inline" fill="#ED1C24" d="M214.294,31.557c-0.812,2.159-1.94,3.928-3.382,5.303c-1.439,1.375-3.137,2.375-5.086,3
		c-1.953,0.623-4.049,0.937-6.288,0.937h-8.204V7.204h8.876c2.209,0,4.247,0.32,6.12,0.959c1.87,0.641,3.484,1.641,4.846,3
		c1.359,1.361,2.426,3.08,3.19,5.159c0.768,2.081,1.151,4.558,1.151,7.438C215.52,26.799,215.111,29.398,214.294,31.557z
		 M208.753,14.018c-2.017-2.271-4.96-3.407-8.83-3.407h-4.847v26.778h4.941c1.823,0,3.453-0.248,4.896-0.744
		c1.438-0.496,2.671-1.289,3.694-2.377c1.021-1.086,1.808-2.485,2.351-4.197c0.545-1.711,0.815-3.768,0.815-6.168
		C211.775,19.584,210.77,16.289,208.753,14.018z"/>
</g>
<g>
	<g>
		<path fill="#FFFFFF" d="M68.735,28.358c-0.523,1.305-1.251,2.403-2.186,3.298c-0.934,0.895-2.042,1.57-3.325,2.03
			c-1.283,0.459-2.684,0.689-4.203,0.689c-1.719,0-3.275-0.317-4.67-0.953c-1.395-0.635-2.596-1.537-3.605-2.708
			s-1.787-2.584-2.335-4.24s-0.822-3.518-0.822-5.585c0-1.992,0.286-3.816,0.859-5.473c0.572-1.656,1.369-3.076,2.391-4.259
			c1.021-1.183,2.242-2.104,3.661-2.765c1.42-0.659,2.989-0.99,4.707-0.99c1.345,0,2.534,0.149,3.568,0.448
			c1.033,0.299,1.948,0.735,2.746,1.308c0.797,0.573,1.488,1.264,2.074,2.073c0.585,0.81,1.089,1.713,1.513,2.708l-4.968,2.055
			c-0.25-0.473-0.518-0.921-0.803-1.345c-0.287-0.423-0.623-0.785-1.009-1.083c-0.387-0.299-0.841-0.535-1.364-0.71
			c-0.523-0.174-1.133-0.261-1.831-0.261c-0.971,0-1.843,0.206-2.615,0.616c-0.772,0.411-1.42,0.984-1.943,1.719
			c-0.523,0.735-0.921,1.606-1.195,2.615c-0.274,1.009-0.411,2.124-0.411,3.344c0,1.195,0.137,2.304,0.411,3.325
			c0.274,1.021,0.678,1.905,1.214,2.652s1.189,1.332,1.961,1.756s1.644,0.635,2.615,0.635c0.896,0,1.656-0.1,2.279-0.299
			c0.622-0.199,1.126-0.473,1.513-0.822c0.386-0.349,0.685-0.766,0.896-1.251c0.211-0.486,0.355-1.015,0.43-1.588h-4.147v-4.856
			h9.377v3.428C69.52,25.559,69.258,27.055,68.735,28.358z"/>
		<path fill="#FFFFFF" d="M74.578,33.965V7.814h18.119v5.118H79.771v4.483h7.509v5.118h-7.509v6.313h13.486v5.118H74.578z"/>
		<path fill="#FFFFFF" d="M115.979,33.965l-2.055-5.828h-9.564l-2.055,5.828h-5.604l10.012-26.15h5.081l9.938,26.15H115.979z
			 M110.449,18.424c-0.274-0.771-0.529-1.519-0.766-2.241c-0.237-0.722-0.418-1.332-0.542-1.831
			c-0.125,0.499-0.306,1.108-0.542,1.831c-0.236,0.723-0.492,1.47-0.766,2.241l-1.681,4.744h5.977L110.449,18.424z"/>
		<path fill="#FFFFFF" d="M140.863,33.965l-4.681-9.414h-5.28v9.414h-5.192V7.814h12.179c1.22,0,2.378,0.168,3.475,0.504
			c1.096,0.336,2.055,0.854,2.876,1.551c0.822,0.697,1.47,1.563,1.942,2.596c0.474,1.034,0.71,2.248,0.71,3.643
			c0,1.967-0.417,3.581-1.251,4.838c-0.835,1.257-2.087,2.21-3.755,2.858l5.006,10.161H140.863z M140.519,13.694
			c-0.662-0.508-1.581-0.762-2.756-0.762h-6.86v6.687h6.86c2.5,0,3.75-1.126,3.75-3.381
			C141.513,15.05,141.181,14.202,140.519,13.694z"/>
		<path fill="#EC1C24" d="M171.954,26.811c-0.76,1.657-1.769,3.014-3.025,4.072c-1.258,1.059-2.689,1.837-4.296,2.335
			s-3.245,0.747-4.913,0.747h-7.808V7.814h8.182c1.867,0,3.592,0.23,5.174,0.691c1.581,0.461,2.951,1.214,4.109,2.26
			s2.066,2.397,2.728,4.053c0.659,1.657,0.989,3.68,0.989,6.071C173.094,23.182,172.714,25.154,171.954,26.811z M165.878,14.921
			c-1.225-1.326-3.225-1.989-5.999-1.989h-2.774v15.915h2.587c1.374,0,2.568-0.192,3.58-0.576c1.013-0.384,1.843-0.923,2.493-1.617
			c0.649-0.694,1.138-1.53,1.463-2.51c0.324-0.979,0.487-2.063,0.487-3.254C167.715,18.237,167.103,16.248,165.878,14.921z"/>
	</g>
	<g>
		<g>
			<g>
				<path fill="#FFFFFF" d="M35.494,23.433c0.162-1.277,0.146-2.545-0.036-3.773l3.419-3.153c-0.385-1.276-0.911-2.488-1.555-3.626
					l-4.64,0.286c-0.769-0.991-1.671-1.883-2.693-2.642l0.188-4.649c-1.151-0.618-2.383-1.101-3.667-1.458l-3.074,3.478
					c-1.277-0.162-2.544-0.146-3.772,0.036l-3.153-3.418c-1.275,0.385-2.487,0.911-3.626,1.555l0.286,4.64
					c-0.991,0.769-1.884,1.671-2.643,2.693L5.88,13.213c-0.618,1.151-1.101,2.382-1.458,3.667l3.479,3.074
					c-0.162,1.277-0.146,2.545,0.037,3.771L4.518,26.88c0.385,1.275,0.911,2.487,1.555,3.625l4.64-0.287
					c0.769,0.993,1.671,1.885,2.692,2.644l-0.188,4.648c1.151,0.618,2.383,1.101,3.668,1.458l3.073-3.478
					c1.277,0.162,2.544,0.146,3.772-0.037l3.153,3.418c1.275-0.384,2.487-0.91,3.626-1.554l-0.286-4.64
					c0.991-0.77,1.883-1.671,2.643-2.692l4.648,0.188c0.618-1.151,1.101-2.383,1.458-3.667L35.494,23.433z M21.697,32.233
					c-5.822,0-10.541-4.72-10.541-10.54c0-5.822,4.719-10.541,10.541-10.541s10.541,4.719,10.541,10.541
					C32.238,27.514,27.519,32.233,21.697,32.233z"/>
			</g>
		</g>
		<g>
			<g>
				<path fill="#EC1C24" d="M21.697,13.384c-4.589,0-8.309,3.72-8.309,8.309c0,4.588,3.72,8.309,8.309,8.309
					s8.309-3.721,8.309-8.309C30.006,17.104,26.286,13.384,21.697,13.384z M21.697,27.643c-3.286,0-5.95-2.664-5.95-5.949
					c0-3.287,2.664-5.95,5.95-5.95s5.95,2.664,5.95,5.95C27.647,24.979,24.983,27.643,21.697,27.643z"/>
			</g>
		</g>
	</g>
</g>
</svg>
