<?xml version="1.0" encoding="utf-8"?>
<!-- Generator: Adobe Illustrator 16.0.4, SVG Export Plug-In . SVG Version: 6.00 Build 0)  -->
<!DOCTYPE svg PUBLIC "-//W3C//DTD SVG 1.1//EN" "http://www.w3.org/Graphics/SVG/1.1/DTD/svg11.dtd">
<svg version="1.1" id="Layer_1" xmlns="http://www.w3.org/2000/svg" xmlns:xlink="http://www.w3.org/1999/xlink" x="0px" y="0px"
	 width="288px" height="60px" viewBox="0 0 288 60" enable-background="new 0 0 288 60" xml:space="preserve">
<g>
	<g>
		<g>
			<g>
				<g>
					<g>
						<path d="M55.1,32.824c-0.413-0.363-0.717-1.11-0.676-1.658c0,0,0.041-0.553,0.041-1.342c0-0.979-0.084-1.894-0.084-1.894
							c-0.05-0.547,0.239-1.301,0.644-1.674l3.039-2.807c0.404-0.373,0.592-1.105,0.417-1.626l-3.043-7.119
							c-0.258-0.485-0.919-0.855-1.468-0.82l-4.118,0.257c-0.549,0.035-1.303-0.268-1.676-0.672L45.86,11.21
							c-0.414-0.363-0.734-1.109-0.712-1.658l0.165-4.14c0.021-0.549-0.363-1.201-0.854-1.447l-7.186-2.874
							c-0.526-0.163-1.253,0.042-1.617,0.454l-2.735,3.1c-0.364,0.412-1.11,0.717-1.659,0.677c0,0-0.551-0.04-1.341-0.04
							c-0.977,0-1.893,0.083-1.893,0.083c-0.548,0.05-1.301-0.24-1.675-0.645l-2.807-3.039c-0.373-0.404-1.105-0.592-1.626-0.417
							L14.8,4.31c-0.485,0.258-0.855,0.919-0.821,1.468l0.257,4.117c0.035,0.549-0.268,1.303-0.672,1.676l-2.257,2.313
							c-0.362,0.414-1.108,0.734-1.658,0.713l-4.14-0.165c-0.549-0.021-1.201,0.363-1.447,0.854l-2.874,7.186
							c-0.163,0.526,0.042,1.253,0.455,1.617l3.098,2.734c0.413,0.364,0.717,1.11,0.676,1.659c0,0-0.041,0.553-0.041,1.342
							c0,0.979,0.084,1.893,0.084,1.893c0.051,0.548-0.239,1.302-0.643,1.675l-3.039,2.807c-0.404,0.373-0.591,1.105-0.416,1.627
							l3.044,7.119c0.258,0.485,0.919,0.854,1.468,0.82l4.116-0.257c0.549-0.034,1.303,0.268,1.677,0.672l2.312,2.257
							c0.414,0.362,0.734,1.108,0.713,1.658l-0.165,4.141c-0.021,0.55,0.363,1.201,0.854,1.447l7.187,2.874
							c0.526,0.163,1.253-0.041,1.617-0.454l2.734-3.098c0.364-0.413,1.11-0.718,1.659-0.678c0,0,0.552,0.04,1.341,0.04
							c0.978,0,1.894-0.083,1.894-0.083c0.548-0.05,1.301,0.241,1.674,0.645l2.806,3.038c0.373,0.403,1.105,0.591,1.626,0.416
							l7.121-3.045c0.485-0.259,0.855-0.919,0.82-1.468l-0.257-4.117c-0.034-0.549,0.269-1.304,0.672-1.677l2.257-2.312
							c0.362-0.414,1.108-0.735,1.658-0.713l4.142,0.164c0.549,0.022,1.201-0.362,1.447-0.854l2.873-7.186
							c0.163-0.525-0.042-1.253-0.455-1.617L55.1,32.824z M29.92,50.277c-11.295,0-20.453-9.156-20.453-20.453
							c0-11.296,9.157-20.453,20.453-20.453c11.296,0,20.453,9.157,20.453,20.453C50.373,41.121,41.216,50.277,29.92,50.277z"/>
						<path d="M55.1,32.824c-0.413-0.363-0.717-1.11-0.676-1.658c0,0,0.041-0.553,0.041-1.342c0-0.979-0.084-1.894-0.084-1.894
							c-0.05-0.547,0.239-1.301,0.644-1.674l3.039-2.807c0.404-0.373,0.592-1.105,0.417-1.626l-3.043-7.119
							c-0.258-0.485-0.919-0.855-1.468-0.82l-4.118,0.257c-0.549,0.035-1.303-0.268-1.676-0.672L45.86,11.21
							c-0.414-0.363-0.734-1.109-0.712-1.658l0.165-4.14c0.021-0.549-0.363-1.201-0.854-1.447l-7.186-2.874
							c-0.526-0.163-1.253,0.042-1.617,0.454l-2.735,3.1c-0.364,0.412-1.11,0.717-1.659,0.677c0,0-0.551-0.04-1.341-0.04
							c-0.977,0-1.893,0.083-1.893,0.083c-0.548,0.05-1.301-0.24-1.675-0.645l-2.807-3.039c-0.373-0.404-1.105-0.592-1.626-0.417
							L14.8,4.31c-0.485,0.258-0.855,0.919-0.821,1.468l0.257,4.117c0.035,0.549-0.268,1.303-0.672,1.676l-2.257,2.313
							c-0.362,0.414-1.108,0.734-1.658,0.713l-4.14-0.165c-0.549-0.021-1.201,0.363-1.447,0.854l-2.874,7.186
							c-0.163,0.526,0.042,1.253,0.455,1.617l3.098,2.734c0.413,0.364,0.717,1.11,0.676,1.659c0,0-0.041,0.553-0.041,1.342
							c0,0.979,0.084,1.893,0.084,1.893c0.051,0.548-0.239,1.302-0.643,1.675l-3.039,2.807c-0.404,0.373-0.591,1.105-0.416,1.627
							l3.044,7.119c0.258,0.485,0.919,0.854,1.468,0.82l4.116-0.257c0.549-0.034,1.303,0.268,1.677,0.672l2.312,2.257
							c0.414,0.362,0.734,1.108,0.713,1.658l-0.165,4.141c-0.021,0.55,0.363,1.201,0.854,1.447l7.187,2.874
							c0.526,0.163,1.253-0.041,1.617-0.454l2.734-3.098c0.364-0.413,1.11-0.718,1.659-0.678c0,0,0.552,0.04,1.341,0.04
							c0.978,0,1.894-0.083,1.894-0.083c0.548-0.05,1.301,0.241,1.674,0.645l2.806,3.038c0.373,0.403,1.105,0.591,1.626,0.416
							l7.121-3.045c0.485-0.259,0.855-0.919,0.82-1.468l-0.257-4.117c-0.034-0.549,0.269-1.304,0.672-1.677l2.257-2.312
							c0.362-0.414,1.108-0.735,1.658-0.713l4.142,0.164c0.549,0.022,1.201-0.362,1.447-0.854l2.873-7.186
							c0.163-0.525-0.042-1.253-0.455-1.617L55.1,32.824z M29.92,50.277c-11.295,0-20.453-9.156-20.453-20.453
							c0-11.296,9.157-20.453,20.453-20.453c11.296,0,20.453,9.157,20.453,20.453C50.373,41.121,41.216,50.277,29.92,50.277z"/>
					</g>
				</g>
			</g>
			<g>
				<g>
					<g>
						<path fill="#ED3033" d="M29.92,13.054c-9.262,0-16.772,7.509-16.772,16.771c0,9.263,7.51,16.771,16.772,16.771
							c9.262,0,16.772-7.509,16.772-16.771C46.692,20.563,39.182,13.054,29.92,13.054z M29.92,42.232
							c-6.852,0-12.408-5.555-12.408-12.408s5.556-12.408,12.408-12.408c6.853,0,12.409,5.554,12.409,12.408
							S36.772,42.232,29.92,42.232z"/>
						<path fill="#ED3033" d="M29.92,13.054c-9.262,0-16.772,7.509-16.772,16.771c0,9.263,7.51,16.771,16.772,16.771
							c9.262,0,16.772-7.509,16.772-16.771C46.692,20.563,39.182,13.054,29.92,13.054z M29.92,42.232
							c-6.852,0-12.408-5.555-12.408-12.408s5.556-12.408,12.408-12.408c6.853,0,12.409,5.554,12.409,12.408
							S36.772,42.232,29.92,42.232z"/>
					</g>
				</g>
			</g>
		</g>
	</g>
	<g>
		<path fill="#231F20" d="M108.426,41.185c-0.891,2.223-2.132,4.097-3.724,5.619c-1.591,1.524-3.481,2.678-5.667,3.462
			c-2.187,0.781-4.574,1.173-7.163,1.173c-2.929,0-5.581-0.54-7.958-1.621c-2.377-1.084-4.425-2.622-6.144-4.617
			c-1.719-1.995-3.046-4.403-3.979-7.227c-0.935-2.823-1.401-5.995-1.401-9.519c0-3.396,0.487-6.504,1.464-9.328
			c0.976-2.823,2.334-5.241,4.075-7.258c1.74-2.016,3.82-3.586,6.239-4.711c2.42-1.124,5.094-1.687,8.023-1.687
			c2.292,0,4.318,0.254,6.081,0.764c1.76,0.509,3.321,1.252,4.679,2.229c1.358,0.977,2.536,2.155,3.534,3.534
			c0.997,1.379,1.856,2.919,2.578,4.616l-8.468,3.502c-0.425-0.806-0.881-1.57-1.369-2.292c-0.489-0.721-1.062-1.337-1.72-1.847
			c-0.658-0.509-1.433-0.912-2.324-1.209c-0.891-0.296-1.932-0.446-3.12-0.446c-1.656,0-3.142,0.351-4.457,1.051
			c-1.316,0.7-2.42,1.677-3.311,2.929c-0.891,1.252-1.571,2.738-2.038,4.457c-0.467,1.72-0.7,3.62-0.7,5.699
			c0,2.037,0.233,3.927,0.7,5.667c0.467,1.741,1.156,3.246,2.069,4.52c0.912,1.273,2.027,2.271,3.343,2.994
			c1.315,0.722,2.801,1.082,4.457,1.082c1.528,0,2.822-0.17,3.884-0.51c1.061-0.339,1.92-0.806,2.579-1.401
			c0.658-0.594,1.167-1.306,1.528-2.133c0.36-0.828,0.605-1.729,0.732-2.706h-7.067v-8.277h15.981v5.841
			C109.764,36.413,109.317,38.962,108.426,41.185z"/>
		<path fill="#231F20" d="M118.154,50.739V6.171h30.88v8.723h-22.029v7.64h12.797v8.723h-12.797v10.76h22.983v8.723H118.154z"/>
		<path fill="#231F20" d="M188.489,50.739l-3.502-9.933h-16.298l-3.502,9.933h-9.551L172.7,6.171h8.659l16.936,44.568H188.489z
			 M179.066,24.253c-0.468-1.315-0.901-2.589-1.305-3.821c-0.404-1.23-0.711-2.27-0.924-3.12c-0.212,0.85-0.52,1.889-0.922,3.12
			c-0.404,1.232-0.84,2.506-1.306,3.821l-2.865,8.085h10.187L179.066,24.253z"/>
		<path fill="#231F20" d="M230.666,50.739l-7.977-16.044h-8.999v16.044h-8.852V6.171h20.758c2.08,0,4.052,0.287,5.922,0.859
			c1.866,0.573,3.5,1.455,4.901,2.642c1.401,1.189,2.504,2.665,3.311,4.425c0.806,1.762,1.21,3.832,1.21,6.208
			c0,3.354-0.712,6.103-2.132,8.245c-1.424,2.145-3.557,3.768-6.398,4.87l8.53,17.318H230.666z M230.08,16.191
			c-1.13-0.865-2.697-1.298-4.697-1.298H213.69V26.29h11.692c4.26,0,6.39-1.919,6.39-5.762
			C231.772,18.502,231.207,17.058,230.08,16.191z"/>
		<path fill="#ED3033" d="M283.427,38.547c-1.295,2.823-3.016,5.136-5.157,6.939c-2.146,1.805-4.586,3.131-7.322,3.979
			c-2.738,0.85-5.531,1.273-8.373,1.273h-13.307V6.171h13.944c3.184,0,6.122,0.393,8.818,1.178c2.694,0.785,5.028,2.069,7.003,3.851
			c1.974,1.783,3.522,4.087,4.647,6.909c1.125,2.823,1.687,6.271,1.687,10.346C285.367,32.36,284.72,35.724,283.427,38.547z
			 M273.07,18.284c-2.089-2.26-5.496-3.391-10.224-3.391h-4.728v27.123h4.408c2.34,0,4.376-0.326,6.102-0.982
			c1.723-0.654,3.141-1.574,4.248-2.756c1.106-1.183,1.938-2.609,2.493-4.277c0.552-1.668,0.829-3.518,0.829-5.546
			C276.199,23.935,275.155,20.544,273.07,18.284z"/>
	</g>
</g>
</svg>
