<?xml version="1.0" encoding="utf-8"?>
<!-- Generator: Adobe Illustrator 14.0.0, SVG Export Plug-In  -->
<!DOCTYPE svg PUBLIC "-//W3C//DTD SVG 1.1//EN" "http://www.w3.org/Graphics/SVG/1.1/DTD/svg11.dtd" [
	<!ENTITY ns_flows "http://ns.adobe.com/Flows/1.0/">
]>
<svg version="1.1"
	 xmlns="http://www.w3.org/2000/svg" xmlns:xlink="http://www.w3.org/1999/xlink" xmlns:a="http://ns.adobe.com/AdobeSVGViewerExtensions/3.0/"
	 x="0px" y="0px" width="229px" height="720px" viewBox="-0.179 0 229 720" enable-background="new -0.179 0 229 720"
	 xml:space="preserve">
<defs>
</defs>
<path fill="#666666" d="M125.54,59.975c0.249,0,0.498-0.075,0.718-0.219l36.71-24.654c0.585-0.396,0.734-1.188,0.34-1.768
	c-0.394-0.587-1.188-0.739-1.771-0.344l-36.71,24.652c-0.586,0.391-0.734,1.186-0.34,1.766
	C124.733,59.769,125.134,59.975,125.54,59.975z"/>
<path fill="#666666" d="M114.635,76.95c0.249,0,0.496-0.072,0.716-0.219l29.071-19.644c0.585-0.392,0.742-1.19,0.346-1.77
	c-0.393-0.587-1.191-0.733-1.77-0.34l-29.075,19.637c-0.586,0.397-0.742,1.191-0.344,1.772
	C113.822,76.753,114.227,76.95,114.635,76.95z"/>
<path fill="#666666" d="M51.686,97.472H177.35c3.51,0,6.363-3.051,6.363-6.809V17.808c0-3.753-2.854-6.808-6.363-6.808H51.686
	c-3.509,0-6.367,3.055-6.367,6.808v72.855C45.318,94.415,48.177,97.472,51.686,97.472z M49.142,17.804
	c0-1.645,1.145-2.983,2.544-2.983H177.35c1.399,0,2.539,1.339,2.539,2.983v72.855c0,1.645-1.14,2.983-2.539,2.983H51.686
	c-1.399,0-2.544-1.339-2.544-2.983V17.804z"/>
<rect x="95.205" y="108.153" fill="none" width="38.587" height="7.67"/>
<path fill="none" d="M184.178,5.101H44.819c-2.88,0-5.22,2.345-5.22,5.223v86.832c0,2.878,2.34,5.219,5.22,5.219h139.358
	c2.88,0,5.22-2.341,5.22-5.219V10.323C189.397,7.445,187.058,5.101,184.178,5.101z"/>
<path fill="#666666" d="M184.178,0H44.819C39.13,0,34.5,4.628,34.5,10.323v86.575c0,5.689,4.624,10.323,10.319,10.323h45.285v8.602
	H76.189c-1.413,0-2.55,1.141-2.55,2.552c0,1.412,1.137,2.549,2.55,2.549h13.915h48.788h13.921c1.411,0,2.552-1.137,2.552-2.549
	c0-1.411-1.141-2.552-2.552-2.552h-13.921v-8.602h45.287c5.689,0,10.32-4.628,10.32-10.323V10.323
	C194.498,4.628,189.869,0,184.178,0z M95.205,115.823v-7.67h38.587v7.67H95.205z M189.397,97.155c0,2.878-2.34,5.219-5.22,5.219
	H44.819c-2.88,0-5.22-2.341-5.22-5.219V10.323c0-2.878,2.34-5.223,5.22-5.223h139.358c2.88,0,5.22,2.345,5.22,5.223V97.155z"/>
<rect x="4.5" y="495.424" fill="#FFFFFF" stroke="#999999" stroke-width="9" width="220" height="220"/>
<rect x="51.5" y="542.424" fill="#394D54" width="126" height="125.999"/>
<rect x="63.885" y="555.018" fill="#20C2EF" width="101.23" height="101.636"/>
<polygon fill="#243A42" points="147.682,644.052 151.879,644.052 151.879,567.622 147.682,567.622 147.682,644.052 "/>
<polygon fill="#243A42" points="133.568,644.052 137.77,644.052 137.77,567.622 133.568,567.622 133.568,644.052 "/>
<polygon fill="#243A42" points="119.455,644.052 123.654,644.052 123.654,567.622 119.455,567.622 119.455,644.052 "/>
<polygon fill="#243A42" points="105.344,644.052 109.543,644.052 109.543,567.622 105.344,567.622 105.344,644.052 "/>
<polygon fill="#243A42" points="91.232,644.052 95.435,644.052 95.435,567.622 91.232,567.622 91.232,644.052 "/>
<polygon fill="#243A42" points="77.123,644.052 81.323,644.052 81.323,567.622 77.123,567.622 77.123,644.052 "/>
<circle fill="#FFFFFF" cx="114.5" cy="605.423" r="34.5"/>
<path fill="#333333" d="M114.5,583.507c-4.047,3.05-12.5,9.579-12.5,20.845c0,11.05,9.291,15.375,11.058,17.748v5.239h1.442h1.442
	V622.1c1.767-2.373,11.058-6.698,11.058-17.748C127,593.086,118.547,586.557,114.5,583.507z"/>
<rect x="4.5" y="194.924" fill="#FFFFFF" stroke="#999999" stroke-width="9" width="220" height="220"/>
<rect x="52.611" y="241.924" fill="#394D54" width="126" height="125.999"/>
<rect x="64.996" y="254.518" fill="#20C2EF" width="101.23" height="101.636"/>
<polygon fill="#243A42" points="148.793,343.552 152.99,343.552 152.99,267.122 148.793,267.122 148.793,343.552 "/>
<polygon fill="#243A42" points="134.68,343.552 138.881,343.552 138.881,267.122 134.68,267.122 134.68,343.552 "/>
<polygon fill="#243A42" points="120.566,343.552 124.766,343.552 124.766,267.122 120.566,267.122 120.566,343.552 "/>
<polygon fill="#243A42" points="106.455,343.552 110.654,343.552 110.654,267.122 106.455,267.122 106.455,343.552 "/>
<polygon fill="#243A42" points="92.344,343.552 96.545,343.552 96.545,267.122 92.344,267.122 92.344,343.552 "/>
<polygon fill="#243A42" points="78.234,343.552 82.434,343.552 82.434,267.122 78.234,267.122 78.234,343.552 "/>
<rect x="71.611" y="284.423" fill="#FFFFFF" width="88" height="41"/>
<text transform="matrix(1 0 0 1 78.6108 309.9229)" fill="#333333" font-family="'HelveticaNeue-CondensedBold'" font-size="16">RockMongo</text>
<g>
	<g>
		<line fill="none" stroke="#000000" stroke-width="2" x1="114.5" y1="127.924" x2="114.5" y2="185.924"/>
		<polygon points="108.403,182.874 110.22,181.058 114.5,185.338 118.783,181.058 120.597,182.874 114.5,188.971 		"/>
	</g>
</g>
<g>
	<g>
		<line fill="none" stroke="#000000" stroke-width="2" x1="114.5" y1="425.924" x2="114.5" y2="483.924"/>
		<polygon points="108.403,480.874 110.22,479.058 114.5,483.338 118.783,479.058 120.597,480.874 114.5,486.971 		"/>
	</g>
</g>
<g>
	<g>
		<line fill="none" stroke="#000000" stroke-width="2" x1="114.5" y1="204.424" x2="114.5" y2="235.424"/>
		<polygon points="108.403,232.374 110.22,230.558 114.5,234.838 118.783,230.558 120.597,232.374 114.5,238.471 		"/>
	</g>
</g>
<g>
	<g>
		<line fill="none" stroke="#000000" stroke-width="2" x1="114.5" y1="373.424" x2="114.5" y2="404.424"/>
		<polygon points="108.403,401.374 110.22,399.558 114.5,403.838 118.783,399.558 120.597,401.374 114.5,407.471 		"/>
	</g>
</g>
<g>
	<g>
		<line fill="none" stroke="#000000" stroke-width="2" x1="114.5" y1="505.424" x2="114.5" y2="536.424"/>
		<polygon points="108.403,533.374 110.22,531.558 114.5,535.838 118.783,531.558 120.597,533.374 114.5,539.471 		"/>
	</g>
</g>
<text transform="matrix(1 0 0 1 123.8799 227.2715)" font-family="'HelveticaNeue-Medium'" font-size="14">80</text>
<text transform="matrix(1 0 0 1 123.8799 396.0879)" font-family="'HelveticaNeue-Medium'" font-size="14">27017</text>
<text transform="matrix(1 0 0 1 123.8799 526.8672)" font-family="'HelveticaNeue-Medium'" font-size="14">27017</text>
<text transform="matrix(1 0 0 1 123.8799 461.0439)" font-family="'HelveticaNeue-Medium'" font-size="14">4000</text>
<text transform="matrix(1 0 0 1 123.8799 163.2715)" font-family="'HelveticaNeue-Medium'" font-size="14">6060</text>
</svg>
