<?xml version="1.0" encoding="utf-8"?>
<!-- Generator: Adobe Illustrator 14.0.0, SVG Export Plug-In  -->
<!DOCTYPE svg PUBLIC "-//W3C//DTD SVG 1.1//EN" "http://www.w3.org/Graphics/SVG/1.1/DTD/svg11.dtd" [
	<!ENTITY ns_flows "http://ns.adobe.com/Flows/1.0/">
]>
<svg version="1.1"
	 xmlns="http://www.w3.org/2000/svg" xmlns:xlink="http://www.w3.org/1999/xlink" xmlns:a="http://ns.adobe.com/AdobeSVGViewerExtensions/3.0/"
	 x="0px" y="0px" width="353px" height="160px" viewBox="0 -0.001 353 160" enable-background="new 0 -0.001 353 160"
	 xml:space="preserve">
<defs>
</defs>
<rect x="42" fill="#394D54" width="126" height="125.999"/>
<rect x="54.384" y="12.594" fill="#20C2EF" width="101.23" height="101.636"/>
<polygon fill="#243A42" points="138.181,101.628 142.378,101.628 142.378,25.198 138.181,25.198 138.181,101.628 "/>
<polygon fill="#243A42" points="124.068,101.628 128.269,101.628 128.269,25.198 124.068,25.198 124.068,101.628 "/>
<polygon fill="#243A42" points="109.956,101.628 114.155,101.628 114.155,25.198 109.956,25.198 109.956,101.628 "/>
<polygon fill="#243A42" points="95.844,101.628 100.043,101.628 100.043,25.198 95.844,25.198 95.844,101.628 "/>
<polygon fill="#243A42" points="81.733,101.628 85.935,101.628 85.935,25.198 81.733,25.198 81.733,101.628 "/>
<polygon fill="#243A42" points="67.623,101.628 71.823,101.628 71.823,25.198 67.623,25.198 67.623,101.628 "/>
<circle fill="#FFFFFF" cx="105" cy="62.999" r="34.5"/>
<path fill="#333333" d="M105,41.083c-4.047,3.05-12.5,9.579-12.5,20.845c0,11.05,9.291,15.375,11.058,17.748v5.239H105h1.442v-5.239
	c1.767-2.373,11.057-6.698,11.057-17.748C117.5,50.662,109.046,44.133,105,41.083z"/>
<rect x="184" fill="#394D54" width="126" height="125.999"/>
<rect x="196.385" y="12.594" fill="#20C2EF" width="101.23" height="101.636"/>
<polygon fill="#243A42" points="280.182,101.628 284.379,101.628 284.379,25.198 280.182,25.198 280.182,101.628 "/>
<polygon fill="#243A42" points="266.068,101.628 270.27,101.628 270.27,25.198 266.068,25.198 266.068,101.628 "/>
<polygon fill="#243A42" points="251.955,101.628 256.154,101.628 256.154,25.198 251.955,25.198 251.955,101.628 "/>
<polygon fill="#243A42" points="237.844,101.628 242.043,101.628 242.043,25.198 237.844,25.198 237.844,101.628 "/>
<polygon fill="#243A42" points="223.733,101.628 227.935,101.628 227.935,25.198 223.733,25.198 223.733,101.628 "/>
<polygon fill="#243A42" points="209.623,101.628 213.823,101.628 213.823,25.198 209.623,25.198 209.623,101.628 "/>
<rect x="203" y="42.499" fill="#FFFFFF" width="88" height="41"/>
<text transform="matrix(1 0 0 1 210 67.999)" fill="#333333" font-family="'HelveticaNeue-CondensedBold'" font-size="16">RockMongo</text>
<polygon fill="#999999" points="6.915,139.822 351.603,139.821 351.603,137.377 6.915,137.377 6.915,139.822 "/>
<polygon fill="#999999" points="352.915,159.999 352.915,98.673 326,98.673 326,107.588 343.999,107.588 343.999,151.085 
	8.915,151.085 8.915,107.588 26,107.588 26,98.673 0,98.673 0,159.999 "/>
</svg>
