<?xml version="1.0" encoding="utf-8"?>
<!-- Generator: Adobe Illustrator 14.0.0, SVG Export Plug-In  -->
<!DOCTYPE svg PUBLIC "-//W3C//DTD SVG 1.1//EN" "http://www.w3.org/Graphics/SVG/1.1/DTD/svg11.dtd" [
	<!ENTITY ns_flows "http://ns.adobe.com/Flows/1.0/">
]>
<svg version="1.1"
	 xmlns="http://www.w3.org/2000/svg" xmlns:xlink="http://www.w3.org/1999/xlink" xmlns:a="http://ns.adobe.com/AdobeSVGViewerExtensions/3.0/"
	 x="0px" y="0px" width="229px" height="721px" viewBox="-0.17 0 229 721" enable-background="new -0.17 0 229 721"
	 xml:space="preserve">
<defs>
</defs>
<path fill="#666666" d="M125.54,59.975c0.249,0,0.498-0.075,0.718-0.219l36.71-24.654c0.585-0.396,0.734-1.188,0.34-1.768
	c-0.394-0.587-1.188-0.739-1.771-0.344l-36.71,24.652c-0.586,0.391-0.734,1.186-0.34,1.766
	C124.733,59.769,125.134,59.975,125.54,59.975z"/>
<path fill="#666666" d="M114.635,76.95c0.249,0,0.496-0.072,0.716-0.219l29.071-19.644c0.585-0.392,0.742-1.19,0.346-1.77
	c-0.393-0.587-1.191-0.733-1.77-0.34l-29.075,19.637c-0.586,0.397-0.742,1.191-0.344,1.772
	C113.822,76.753,114.227,76.95,114.635,76.95z"/>
<path fill="#666666" d="M51.686,97.472H177.35c3.51,0,6.363-3.051,6.363-6.809V17.808c0-3.753-2.854-6.808-6.363-6.808H51.686
	c-3.509,0-6.367,3.055-6.367,6.808v72.855C45.318,94.415,48.177,97.472,51.686,97.472z M49.142,17.804
	c0-1.645,1.145-2.983,2.544-2.983H177.35c1.399,0,2.539,1.339,2.539,2.983v72.855c0,1.645-1.14,2.983-2.539,2.983H51.686
	c-1.399,0-2.544-1.339-2.544-2.983V17.804z"/>
<rect x="95.205" y="108.153" fill="none" width="38.587" height="7.67"/>
<path fill="none" d="M184.178,5.101H44.819c-2.88,0-5.22,2.345-5.22,5.223v86.832c0,2.878,2.34,5.219,5.22,5.219h139.358
	c2.88,0,5.22-2.341,5.22-5.219V10.323C189.397,7.445,187.058,5.101,184.178,5.101z"/>
<path fill="#666666" d="M184.178,0H44.819C39.13,0,34.5,4.628,34.5,10.323v86.575c0,5.689,4.624,10.323,10.319,10.323h45.285v8.602
	H76.189c-1.413,0-2.55,1.141-2.55,2.552c0,1.412,1.137,2.549,2.55,2.549h13.915h48.788h13.921c1.411,0,2.552-1.137,2.552-2.549
	c0-1.411-1.141-2.552-2.552-2.552h-13.921v-8.602h45.287c5.689,0,10.32-4.628,10.32-10.323V10.323
	C194.498,4.628,189.869,0,184.178,0z M95.205,115.823v-7.67h38.587v7.67H95.205z M189.397,97.155c0,2.878-2.34,5.219-5.22,5.219
	H44.819c-2.88,0-5.22-2.341-5.22-5.219V10.323c0-2.878,2.34-5.223,5.22-5.223h139.358c2.88,0,5.22,2.345,5.22,5.223V97.155z"/>
<rect x="4.5" y="495.424" fill="#FFFFFF" stroke="#999999" stroke-width="9" width="220" height="220"/>
<rect x="51.5" y="542.424" fill="#394D54" width="126" height="125.999"/>
<rect x="63.885" y="555.018" fill="#20C2EF" width="101.23" height="101.636"/>
<polygon fill="#243A42" points="147.682,644.052 151.879,644.052 151.879,567.622 147.682,567.622 147.682,644.052 "/>
<polygon fill="#243A42" points="133.568,644.052 137.77,644.052 137.77,567.622 133.568,567.622 133.568,644.052 "/>
<polygon fill="#243A42" points="119.455,644.052 123.654,644.052 123.654,567.622 119.455,567.622 119.455,644.052 "/>
<polygon fill="#243A42" points="105.344,644.052 109.543,644.052 109.543,567.622 105.344,567.622 105.344,644.052 "/>
<polygon fill="#243A42" points="91.232,644.052 95.435,644.052 95.435,567.622 91.232,567.622 91.232,644.052 "/>
<polygon fill="#243A42" points="77.123,644.052 81.323,644.052 81.323,567.622 77.123,567.622 77.123,644.052 "/>
<circle fill="#FFFFFF" cx="114.5" cy="605.63" r="34.5"/>
<rect x="4.5" y="194.924" fill="#FFFFFF" stroke="#999999" stroke-width="9" width="220" height="220"/>
<rect x="52.611" y="241.924" fill="#394D54" width="126" height="125.999"/>
<rect x="64.996" y="254.518" fill="#20C2EF" width="101.23" height="101.636"/>
<polygon fill="#243A42" points="148.793,343.552 152.99,343.552 152.99,267.122 148.793,267.122 148.793,343.552 "/>
<polygon fill="#243A42" points="134.68,343.552 138.881,343.552 138.881,267.122 134.68,267.122 134.68,343.552 "/>
<polygon fill="#243A42" points="120.566,343.552 124.766,343.552 124.766,267.122 120.566,267.122 120.566,343.552 "/>
<polygon fill="#243A42" points="106.455,343.552 110.654,343.552 110.654,267.122 106.455,267.122 106.455,343.552 "/>
<polygon fill="#243A42" points="92.344,343.552 96.545,343.552 96.545,267.122 92.344,267.122 92.344,343.552 "/>
<polygon fill="#243A42" points="78.234,343.552 82.434,343.552 82.434,267.122 78.234,267.122 78.234,343.552 "/>
<rect x="71.611" y="284.423" fill="#FFFFFF" width="88" height="41"/>
<path fill="#333333" d="M83.667,298.499c0.96,0,1.707,0.243,2.24,0.728c0.533,0.486,0.8,1.225,0.8,2.217
	c0,0.768-0.155,1.395-0.464,1.879c-0.31,0.486-0.79,0.798-1.44,0.937v0.032c0.576,0.086,0.998,0.271,1.264,0.561
	c0.267,0.287,0.432,0.752,0.496,1.391c0.021,0.215,0.037,0.446,0.048,0.697c0.011,0.25,0.021,0.53,0.032,0.84
	c0.021,0.607,0.053,1.072,0.096,1.392c0.064,0.319,0.203,0.538,0.416,0.655v0.097h-2.496c-0.117-0.16-0.192-0.345-0.224-0.552
	c-0.032-0.208-0.054-0.424-0.064-0.648l-0.064-2.191c-0.021-0.448-0.133-0.801-0.336-1.057s-0.544-0.384-1.024-0.384h-1.232v4.832
	h-2.304v-11.424H83.667z M82.675,303.49c0.555,0,0.981-0.13,1.28-0.392c0.298-0.261,0.448-0.701,0.448-1.319
	c0-1.057-0.534-1.584-1.6-1.584h-1.088v3.295H82.675z"/>
<path fill="#333333" d="M88.131,303.667c0.117-0.565,0.309-1.038,0.576-1.416c0.266-0.378,0.616-0.667,1.048-0.864
	s0.962-0.296,1.592-0.296c0.662-0.011,1.21,0.077,1.648,0.265c0.438,0.186,0.784,0.471,1.04,0.855
	c0.256,0.384,0.438,0.859,0.544,1.424c0.107,0.565,0.16,1.227,0.16,1.984c0,0.736-0.059,1.387-0.176,1.951
	c-0.118,0.566-0.31,1.038-0.576,1.416c-0.267,0.379-0.616,0.659-1.048,0.84c-0.432,0.182-0.963,0.272-1.592,0.272
	c-0.661,0.011-1.21-0.071-1.648-0.247c-0.438-0.177-0.784-0.454-1.04-0.832c-0.256-0.379-0.438-0.854-0.544-1.425
	c-0.106-0.57-0.16-1.229-0.16-1.976C87.955,304.883,88.013,304.232,88.131,303.667z M90.195,306.835
	c0.021,0.374,0.072,0.693,0.152,0.96s0.2,0.475,0.36,0.624c0.16,0.149,0.373,0.224,0.64,0.224c0.448,0,0.757-0.234,0.928-0.703
	c0.17-0.47,0.256-1.243,0.256-2.32c0-1.078-0.085-1.851-0.256-2.32c-0.171-0.469-0.48-0.704-0.928-0.704
	c-0.267,0-0.48,0.075-0.64,0.224c-0.16,0.15-0.28,0.357-0.36,0.625c-0.08,0.266-0.13,0.586-0.152,0.959
	c-0.021,0.374-0.032,0.779-0.032,1.217S90.173,306.461,90.195,306.835z"/>
<path fill="#333333" d="M100.027,303.795c-0.026-0.203-0.075-0.387-0.144-0.553c-0.069-0.164-0.168-0.298-0.296-0.399
	c-0.128-0.101-0.299-0.151-0.512-0.151c-0.267,0-0.486,0.061-0.656,0.184c-0.171,0.123-0.299,0.304-0.384,0.544
	c-0.085,0.239-0.144,0.544-0.176,0.912c-0.032,0.368-0.048,0.803-0.048,1.304c0,0.533,0.016,0.99,0.048,1.368
	c0.032,0.379,0.091,0.69,0.176,0.937c0.085,0.245,0.205,0.424,0.36,0.535c0.154,0.112,0.354,0.168,0.6,0.168
	c0.373,0,0.645-0.16,0.816-0.479c0.17-0.32,0.256-0.832,0.256-1.536h2.112c0,1.131-0.254,1.992-0.76,2.584
	c-0.507,0.592-1.347,0.888-2.52,0.888c-0.555,0-1.038-0.066-1.448-0.2c-0.411-0.133-0.752-0.373-1.024-0.72
	c-0.272-0.347-0.478-0.811-0.616-1.392c-0.139-0.582-0.208-1.305-0.208-2.168c0-0.886,0.085-1.619,0.256-2.2s0.411-1.046,0.72-1.392
	c0.309-0.348,0.677-0.59,1.104-0.729c0.426-0.139,0.896-0.208,1.408-0.208c1.024,0,1.795,0.299,2.312,0.896
	c0.518,0.598,0.776,1.408,0.776,2.433h-2.112C100.067,304.205,100.054,303.998,100.027,303.795z"/>
<path fill="#333333" d="M105.619,304.531h0.032l2.224-3.217h2.432l-2.48,3.393l2.848,5.216h-2.432l-1.84-3.536l-0.784,1.023v2.513
	h-2.208v-11.424h2.208V304.531z"/>
<path fill="#333333" d="M114.867,298.499l1.632,8.063h0.032l1.648-8.063h3.408v11.424h-2.113v-9.12h-0.031l-2.032,9.12h-1.792
	l-2.032-9.12h-0.032v9.12h-2.112v-11.424H114.867z"/>
<path fill="#333333" d="M123.059,303.667c0.117-0.565,0.31-1.038,0.576-1.416s0.616-0.667,1.049-0.864
	c0.432-0.197,0.962-0.296,1.592-0.296c0.661-0.011,1.21,0.077,1.647,0.265c0.438,0.186,0.784,0.471,1.04,0.855
	c0.256,0.384,0.438,0.859,0.544,1.424c0.106,0.565,0.16,1.227,0.16,1.984c0,0.736-0.059,1.387-0.176,1.951
	c-0.118,0.566-0.31,1.038-0.576,1.416c-0.267,0.379-0.616,0.659-1.048,0.84c-0.432,0.182-0.963,0.272-1.592,0.272
	c-0.662,0.011-1.211-0.071-1.648-0.247c-0.438-0.177-0.783-0.454-1.04-0.832c-0.256-0.379-0.438-0.854-0.544-1.425
	c-0.106-0.57-0.16-1.229-0.16-1.976C122.883,304.883,122.941,304.232,123.059,303.667z M125.123,306.835
	c0.021,0.374,0.072,0.693,0.152,0.96s0.199,0.475,0.359,0.624s0.373,0.224,0.641,0.224c0.447,0,0.757-0.234,0.928-0.703
	c0.17-0.47,0.256-1.243,0.256-2.32c0-1.078-0.086-1.851-0.256-2.32c-0.171-0.469-0.48-0.704-0.928-0.704
	c-0.268,0-0.48,0.075-0.641,0.224c-0.16,0.15-0.279,0.357-0.359,0.625c-0.08,0.266-0.131,0.586-0.152,0.959
	c-0.021,0.374-0.032,0.779-0.032,1.217S125.102,306.461,125.123,306.835z"/>
<path fill="#333333" d="M132.963,301.314v1.008h0.031c0.234-0.426,0.539-0.738,0.912-0.936s0.801-0.296,1.28-0.296
	c0.704,0,1.245,0.192,1.624,0.576s0.568,1.008,0.568,1.872v6.384h-2.208v-5.937c0-0.447-0.075-0.76-0.224-0.936
	c-0.15-0.176-0.391-0.264-0.721-0.264c-0.779,0-1.168,0.475-1.168,1.424v5.712h-2.208v-8.608H132.963z"/>
<path fill="#333333" d="M145.299,309.49c0,1.109-0.275,1.941-0.824,2.496s-1.469,0.832-2.76,0.832c-0.939,0-1.662-0.199-2.168-0.6
	c-0.507-0.4-0.76-0.968-0.76-1.704h2.111c0,0.277,0.112,0.496,0.336,0.656c0.107,0.074,0.222,0.134,0.344,0.176
	c0.123,0.042,0.254,0.063,0.393,0.063c0.448,0,0.763-0.143,0.943-0.432c0.182-0.287,0.272-0.645,0.272-1.072v-1.135h-0.032
	c-0.224,0.319-0.498,0.575-0.824,0.768c-0.324,0.191-0.664,0.287-1.016,0.287c-0.875,0-1.533-0.332-1.976-1
	c-0.442-0.666-0.664-1.783-0.664-3.352c0-0.501,0.029-1.014,0.088-1.535c0.059-0.523,0.181-0.995,0.368-1.416
	c0.187-0.422,0.459-0.766,0.816-1.033c0.357-0.266,0.834-0.399,1.432-0.399c0.309,0,0.629,0.085,0.96,0.256s0.603,0.479,0.815,0.929
	h0.032v-0.961h2.112V309.49z M140.923,306.738c0.026,0.268,0.08,0.504,0.159,0.713c0.08,0.207,0.193,0.373,0.337,0.496
	s0.333,0.184,0.567,0.184s0.43-0.061,0.584-0.184s0.277-0.291,0.369-0.504c0.09-0.214,0.154-0.473,0.191-0.776s0.056-0.638,0.056-1
	c0-1.046-0.083-1.786-0.247-2.224c-0.166-0.438-0.467-0.656-0.904-0.656c-0.246,0-0.443,0.053-0.592,0.16
	c-0.15,0.106-0.268,0.279-0.353,0.52s-0.142,0.561-0.168,0.96s-0.04,0.888-0.04,1.464
	C140.883,306.189,140.896,306.473,140.923,306.738z"/>
<path fill="#333333" d="M146.738,303.667c0.117-0.565,0.311-1.038,0.576-1.416c0.268-0.378,0.617-0.667,1.049-0.864
	s0.963-0.296,1.592-0.296c0.66-0.011,1.211,0.077,1.648,0.265c0.436,0.186,0.783,0.471,1.039,0.855
	c0.256,0.384,0.438,0.859,0.545,1.424c0.105,0.565,0.16,1.227,0.16,1.984c0,0.736-0.061,1.387-0.178,1.951
	c-0.117,0.566-0.309,1.038-0.574,1.416c-0.268,0.379-0.617,0.659-1.049,0.84c-0.432,0.182-0.963,0.272-1.592,0.272
	c-0.662,0.011-1.211-0.071-1.648-0.247c-0.438-0.177-0.783-0.454-1.039-0.832c-0.256-0.379-0.438-0.854-0.545-1.425
	c-0.107-0.57-0.16-1.229-0.16-1.976C146.562,304.883,146.621,304.232,146.738,303.667z M148.803,306.835
	c0.021,0.374,0.072,0.693,0.152,0.96s0.199,0.475,0.359,0.624s0.373,0.224,0.641,0.224c0.447,0,0.758-0.234,0.928-0.703
	c0.17-0.47,0.256-1.243,0.256-2.32c0-1.078-0.086-1.851-0.256-2.32c-0.17-0.469-0.48-0.704-0.928-0.704
	c-0.268,0-0.48,0.075-0.641,0.224c-0.16,0.15-0.279,0.357-0.359,0.625c-0.08,0.266-0.131,0.586-0.152,0.959
	c-0.021,0.374-0.031,0.779-0.031,1.217S148.781,306.461,148.803,306.835z"/>
<g>
	<g>
		<line fill="none" stroke="#000000" stroke-width="2" x1="114.5" y1="127.924" x2="114.5" y2="185.924"/>
		<polygon points="108.403,182.874 110.218,181.058 114.5,185.34 118.78,181.058 120.597,182.874 114.5,188.971 		"/>
	</g>
</g>
<g>
	<g>
		<line fill="none" stroke="#000000" stroke-width="2" x1="114.5" y1="425.924" x2="114.5" y2="483.924"/>
		<polygon points="108.403,480.874 110.218,479.058 114.5,483.34 118.78,479.058 120.597,480.874 114.5,486.971 		"/>
	</g>
</g>
<g>
	<g>
		<line fill="none" stroke="#000000" stroke-width="2" x1="114.5" y1="204.424" x2="114.5" y2="235.424"/>
		<polygon points="108.403,232.374 110.218,230.558 114.5,234.84 118.78,230.558 120.597,232.374 114.5,238.471 		"/>
	</g>
</g>
<g>
	<g>
		<line fill="none" stroke="#000000" stroke-width="2" x1="114.5" y1="373.424" x2="114.5" y2="404.424"/>
		<polygon points="108.403,401.374 110.218,399.558 114.5,403.84 118.78,399.558 120.597,401.374 114.5,407.471 		"/>
	</g>
</g>
<g>
	<g>
		<line fill="none" stroke="#000000" stroke-width="2" x1="114.5" y1="505.424" x2="114.5" y2="536.424"/>
		<polygon points="108.403,533.374 110.218,531.558 114.5,535.84 118.78,531.558 120.597,533.374 114.5,539.471 		"/>
	</g>
</g>
<path d="M127.771,227.468c-0.494,0-0.954-0.07-1.379-0.21c-0.425-0.141-0.791-0.344-1.099-0.609s-0.549-0.59-0.721-0.973
	c-0.173-0.383-0.26-0.812-0.26-1.288c0-0.616,0.161-1.134,0.483-1.555c0.322-0.42,0.758-0.699,1.309-0.84v-0.027
	c-0.447-0.168-0.791-0.428-1.028-0.777c-0.238-0.35-0.357-0.763-0.357-1.239c0-0.84,0.264-1.495,0.791-1.967
	c0.527-0.471,1.281-0.707,2.261-0.707c0.98,0,1.734,0.236,2.262,0.707c0.527,0.472,0.791,1.127,0.791,1.967
	c0,0.477-0.119,0.89-0.357,1.239s-0.581,0.609-1.029,0.777v0.027c0.551,0.141,0.987,0.42,1.31,0.84
	c0.322,0.421,0.482,0.938,0.482,1.555c0,0.476-0.086,0.905-0.259,1.288s-0.413,0.707-0.721,0.973
	c-0.309,0.266-0.675,0.469-1.099,0.609C128.726,227.397,128.267,227.468,127.771,227.468z M127.771,226.207
	c0.532,0,0.976-0.158,1.33-0.476s0.532-0.766,0.532-1.344c0-0.541-0.178-0.964-0.532-1.268c-0.354-0.303-0.798-0.455-1.33-0.455
	c-0.531,0-0.975,0.152-1.33,0.455c-0.354,0.304-0.531,0.727-0.531,1.268c0,0.578,0.177,1.026,0.531,1.344
	C126.797,226.049,127.24,226.207,127.771,226.207z M127.771,218.535c-0.429,0-0.793,0.129-1.092,0.386s-0.448,0.627-0.448,1.112
	c0,0.467,0.146,0.824,0.435,1.071s0.658,0.371,1.105,0.371c0.448,0,0.817-0.124,1.106-0.371s0.434-0.604,0.434-1.071
	c0-0.485-0.149-0.855-0.447-1.112C128.565,218.664,128.201,218.535,127.771,218.535z"/>
<path d="M135.556,217.275c0.7,0,1.272,0.161,1.716,0.483c0.442,0.321,0.788,0.732,1.035,1.231c0.248,0.5,0.416,1.048,0.505,1.646
	c0.088,0.597,0.133,1.176,0.133,1.735c0,0.561-0.045,1.14-0.133,1.736c-0.089,0.598-0.257,1.146-0.505,1.646
	c-0.247,0.499-0.593,0.909-1.035,1.231c-0.443,0.322-1.016,0.483-1.716,0.483c-0.699,0-1.271-0.161-1.715-0.483
	s-0.788-0.732-1.036-1.231c-0.247-0.5-0.415-1.048-0.504-1.646c-0.089-0.597-0.133-1.176-0.133-1.736
	c0-0.56,0.044-1.139,0.133-1.735c0.089-0.598,0.257-1.146,0.504-1.646c0.248-0.499,0.593-0.91,1.036-1.231
	C134.284,217.437,134.856,217.275,135.556,217.275z M135.556,226.138c0.346,0,0.635-0.101,0.868-0.301
	c0.233-0.201,0.418-0.472,0.554-0.812c0.135-0.341,0.23-0.739,0.286-1.197c0.057-0.457,0.084-0.942,0.084-1.456
	c0-0.513-0.027-0.996-0.084-1.448c-0.056-0.453-0.151-0.852-0.286-1.197c-0.136-0.346-0.32-0.618-0.554-0.819
	c-0.233-0.2-0.522-0.301-0.868-0.301c-0.354,0-0.646,0.101-0.875,0.301c-0.229,0.201-0.41,0.474-0.546,0.819
	c-0.135,0.346-0.23,0.744-0.287,1.197c-0.056,0.452-0.084,0.936-0.084,1.448c0,0.514,0.028,0.999,0.084,1.456
	c0.057,0.458,0.152,0.856,0.287,1.197c0.136,0.341,0.317,0.611,0.546,0.812C134.909,226.037,135.201,226.138,135.556,226.138z"/>
<path d="M131.117,396.088h-6.691c0.01-0.812,0.205-1.521,0.588-2.128s0.905-1.134,1.568-1.582c0.316-0.233,0.648-0.46,0.994-0.679
	c0.345-0.22,0.662-0.455,0.951-0.707s0.527-0.525,0.715-0.819c0.187-0.294,0.284-0.632,0.293-1.015c0-0.178-0.021-0.366-0.062-0.567
	c-0.042-0.2-0.123-0.387-0.244-0.56c-0.122-0.173-0.29-0.317-0.504-0.435c-0.215-0.116-0.496-0.175-0.841-0.175
	c-0.317,0-0.581,0.063-0.791,0.189s-0.378,0.299-0.504,0.518c-0.126,0.22-0.22,0.479-0.28,0.777s-0.096,0.62-0.104,0.966h-1.597
	c0-0.541,0.072-1.043,0.217-1.505s0.362-0.861,0.652-1.197c0.289-0.336,0.641-0.6,1.057-0.791c0.415-0.191,0.898-0.287,1.449-0.287
	c0.597,0,1.096,0.098,1.498,0.294c0.4,0.196,0.725,0.443,0.973,0.742c0.247,0.299,0.422,0.623,0.525,0.973
	c0.102,0.351,0.153,0.685,0.153,1.001c0,0.393-0.061,0.747-0.183,1.064c-0.121,0.317-0.284,0.608-0.489,0.875
	c-0.206,0.266-0.438,0.511-0.7,0.735c-0.262,0.224-0.531,0.434-0.812,0.63c-0.279,0.195-0.56,0.383-0.84,0.56
	c-0.279,0.178-0.539,0.354-0.776,0.532c-0.238,0.178-0.446,0.361-0.623,0.553c-0.178,0.191-0.299,0.395-0.364,0.609h4.773V396.088z"
	/>
<path d="M132.154,386.288h6.705v1.33c-0.513,0.578-0.979,1.178-1.399,1.799s-0.786,1.278-1.099,1.974s-0.567,1.431-0.764,2.205
	c-0.195,0.775-0.326,1.605-0.392,2.492h-1.75c0.056-0.774,0.188-1.54,0.399-2.296c0.209-0.756,0.48-1.488,0.812-2.198
	c0.331-0.709,0.716-1.391,1.155-2.044c0.438-0.653,0.91-1.265,1.414-1.834h-5.082V386.288z"/>
<path d="M143.34,386.092c0.699,0,1.271,0.161,1.715,0.483c0.443,0.321,0.789,0.732,1.036,1.231c0.247,0.5,0.415,1.048,0.504,1.646
	c0.089,0.597,0.133,1.176,0.133,1.735c0,0.561-0.044,1.14-0.133,1.736c-0.089,0.598-0.257,1.146-0.504,1.646
	c-0.247,0.499-0.593,0.909-1.036,1.231s-1.016,0.483-1.715,0.483c-0.7,0-1.271-0.161-1.715-0.483s-0.789-0.732-1.036-1.231
	c-0.247-0.5-0.415-1.048-0.504-1.646c-0.089-0.597-0.134-1.176-0.134-1.736c0-0.56,0.045-1.139,0.134-1.735
	c0.089-0.598,0.257-1.146,0.504-1.646c0.247-0.499,0.593-0.91,1.036-1.231C142.068,386.253,142.64,386.092,143.34,386.092z
	 M143.34,394.954c0.346,0,0.635-0.101,0.867-0.301c0.234-0.201,0.418-0.472,0.554-0.812s0.231-0.739,0.287-1.197
	c0.056-0.457,0.084-0.942,0.084-1.456c0-0.513-0.028-0.996-0.084-1.448c-0.056-0.453-0.151-0.852-0.287-1.197
	s-0.319-0.618-0.554-0.819c-0.232-0.2-0.521-0.301-0.867-0.301c-0.355,0-0.646,0.101-0.875,0.301
	c-0.229,0.201-0.411,0.474-0.546,0.819c-0.136,0.346-0.231,0.744-0.287,1.197c-0.056,0.452-0.084,0.936-0.084,1.448
	c0,0.514,0.028,0.999,0.084,1.456c0.056,0.458,0.151,0.856,0.287,1.197c0.135,0.341,0.317,0.611,0.546,0.812
	C142.693,394.854,142.984,394.954,143.34,394.954z"/>
<path d="M147.975,387.912c0.336,0,0.662-0.028,0.979-0.084c0.317-0.057,0.604-0.149,0.86-0.28c0.257-0.131,0.477-0.299,0.658-0.504
	s0.301-0.457,0.357-0.756h1.302v9.8h-1.75v-6.916h-2.407V387.912z"/>
<path d="M155.506,386.288h6.706v1.33c-0.513,0.578-0.979,1.178-1.399,1.799s-0.787,1.278-1.1,1.974s-0.566,1.431-0.763,2.205
	c-0.196,0.775-0.327,1.605-0.392,2.492h-1.75c0.056-0.774,0.188-1.54,0.398-2.296s0.48-1.488,0.812-2.198
	c0.33-0.709,0.716-1.391,1.154-2.044c0.439-0.653,0.91-1.265,1.414-1.834h-5.082V386.288z"/>
<path d="M131.117,526.867h-6.691c0.01-0.812,0.205-1.521,0.588-2.128s0.905-1.134,1.568-1.582c0.316-0.233,0.648-0.46,0.994-0.679
	c0.345-0.22,0.662-0.455,0.951-0.707s0.527-0.525,0.715-0.819c0.187-0.294,0.284-0.632,0.293-1.015c0-0.178-0.021-0.366-0.062-0.567
	c-0.042-0.2-0.123-0.387-0.244-0.56c-0.122-0.173-0.29-0.317-0.504-0.435c-0.215-0.116-0.496-0.175-0.841-0.175
	c-0.317,0-0.581,0.063-0.791,0.189s-0.378,0.299-0.504,0.518c-0.126,0.22-0.22,0.479-0.28,0.777s-0.096,0.62-0.104,0.966h-1.597
	c0-0.541,0.072-1.043,0.217-1.505s0.362-0.861,0.652-1.197c0.289-0.336,0.641-0.6,1.057-0.791c0.415-0.191,0.898-0.287,1.449-0.287
	c0.597,0,1.096,0.098,1.498,0.294c0.4,0.196,0.725,0.443,0.973,0.742c0.247,0.299,0.422,0.623,0.525,0.973
	c0.102,0.351,0.153,0.685,0.153,1.001c0,0.393-0.061,0.747-0.183,1.064c-0.121,0.317-0.284,0.608-0.489,0.875
	c-0.206,0.266-0.438,0.511-0.7,0.735c-0.262,0.224-0.531,0.434-0.812,0.63c-0.279,0.195-0.56,0.383-0.84,0.56
	c-0.279,0.178-0.539,0.354-0.776,0.532c-0.238,0.178-0.446,0.361-0.623,0.553c-0.178,0.191-0.299,0.395-0.364,0.609h4.773V526.867z"
	/>
<path d="M132.154,517.067h6.705v1.33c-0.513,0.578-0.979,1.178-1.399,1.799s-0.786,1.278-1.099,1.974s-0.567,1.431-0.764,2.205
	c-0.195,0.775-0.326,1.605-0.392,2.492h-1.75c0.056-0.774,0.188-1.54,0.399-2.296c0.209-0.756,0.48-1.488,0.812-2.198
	c0.331-0.709,0.716-1.391,1.155-2.044c0.438-0.653,0.91-1.265,1.414-1.834h-5.082V517.067z"/>
<path d="M143.34,516.871c0.699,0,1.271,0.161,1.715,0.483c0.443,0.321,0.789,0.732,1.036,1.231c0.247,0.5,0.415,1.048,0.504,1.646
	c0.089,0.597,0.133,1.176,0.133,1.735c0,0.561-0.044,1.14-0.133,1.736c-0.089,0.598-0.257,1.146-0.504,1.646
	c-0.247,0.499-0.593,0.909-1.036,1.231s-1.016,0.483-1.715,0.483c-0.7,0-1.271-0.161-1.715-0.483s-0.789-0.732-1.036-1.231
	c-0.247-0.5-0.415-1.048-0.504-1.646c-0.089-0.597-0.134-1.176-0.134-1.736c0-0.56,0.045-1.139,0.134-1.735
	c0.089-0.598,0.257-1.146,0.504-1.646c0.247-0.499,0.593-0.91,1.036-1.231C142.068,517.032,142.64,516.871,143.34,516.871z
	 M143.34,525.733c0.346,0,0.635-0.101,0.867-0.301c0.234-0.201,0.418-0.472,0.554-0.812s0.231-0.739,0.287-1.197
	c0.056-0.457,0.084-0.942,0.084-1.456c0-0.513-0.028-0.996-0.084-1.448c-0.056-0.453-0.151-0.852-0.287-1.197
	s-0.319-0.618-0.554-0.819c-0.232-0.2-0.521-0.301-0.867-0.301c-0.355,0-0.646,0.101-0.875,0.301
	c-0.229,0.201-0.411,0.474-0.546,0.819c-0.136,0.346-0.231,0.744-0.287,1.197c-0.056,0.452-0.084,0.936-0.084,1.448
	c0,0.514,0.028,0.999,0.084,1.456c0.056,0.458,0.151,0.856,0.287,1.197c0.135,0.341,0.317,0.611,0.546,0.812
	C142.693,525.633,142.984,525.733,143.34,525.733z"/>
<path d="M147.975,518.691c0.336,0,0.662-0.028,0.979-0.084c0.317-0.057,0.604-0.149,0.86-0.28c0.257-0.131,0.477-0.299,0.658-0.504
	s0.301-0.457,0.357-0.756h1.302v9.8h-1.75v-6.916h-2.407V518.691z"/>
<path d="M155.506,517.067h6.706v1.33c-0.513,0.578-0.979,1.178-1.399,1.799s-0.787,1.278-1.1,1.974s-0.566,1.431-0.763,2.205
	c-0.196,0.775-0.327,1.605-0.392,2.492h-1.75c0.056-0.774,0.188-1.54,0.398-2.296s0.48-1.488,0.812-2.198
	c0.33-0.709,0.716-1.391,1.154-2.044c0.439-0.653,0.91-1.265,1.414-1.834h-5.082V517.067z"/>
<path d="M131.188,458.72h-1.26v2.324h-1.512v-2.324h-4.2v-1.582l4.2-5.894h1.512v6.216h1.26V458.72z M125.447,457.46h2.969v-4.312
	h-0.028L125.447,457.46z"/>
<path d="M135.557,451.048c0.699,0,1.271,0.161,1.715,0.483c0.443,0.321,0.788,0.732,1.035,1.231c0.248,0.5,0.416,1.048,0.504,1.646
	c0.089,0.597,0.133,1.176,0.133,1.735c0,0.561-0.044,1.14-0.133,1.736c-0.088,0.598-0.256,1.146-0.504,1.646
	c-0.247,0.499-0.592,0.909-1.035,1.231s-1.016,0.483-1.715,0.483c-0.701,0-1.272-0.161-1.716-0.483s-0.788-0.732-1.036-1.231
	c-0.247-0.5-0.415-1.048-0.504-1.646c-0.088-0.597-0.133-1.176-0.133-1.736c0-0.56,0.045-1.139,0.133-1.735
	c0.089-0.598,0.257-1.146,0.504-1.646c0.248-0.499,0.593-0.91,1.036-1.231C134.284,451.209,134.855,451.048,135.557,451.048z
	 M135.557,459.91c0.345,0,0.634-0.101,0.867-0.301c0.233-0.201,0.418-0.472,0.553-0.812c0.136-0.341,0.231-0.739,0.287-1.197
	c0.057-0.457,0.084-0.942,0.084-1.456c0-0.513-0.027-0.996-0.084-1.448c-0.056-0.453-0.151-0.852-0.287-1.197
	c-0.135-0.346-0.319-0.618-0.553-0.819c-0.233-0.2-0.522-0.301-0.867-0.301c-0.355,0-0.646,0.101-0.875,0.301
	c-0.229,0.201-0.412,0.474-0.547,0.819s-0.23,0.744-0.287,1.197c-0.056,0.452-0.084,0.936-0.084,1.448
	c0,0.514,0.028,0.999,0.084,1.456c0.057,0.458,0.152,0.856,0.287,1.197s0.317,0.611,0.547,0.812
	C134.91,459.81,135.201,459.91,135.557,459.91z"/>
<path d="M143.34,451.048c0.699,0,1.271,0.161,1.715,0.483c0.443,0.321,0.789,0.732,1.036,1.231c0.247,0.5,0.415,1.048,0.504,1.646
	c0.089,0.597,0.133,1.176,0.133,1.735c0,0.561-0.044,1.14-0.133,1.736c-0.089,0.598-0.257,1.146-0.504,1.646
	c-0.247,0.499-0.593,0.909-1.036,1.231s-1.016,0.483-1.715,0.483c-0.7,0-1.271-0.161-1.715-0.483s-0.789-0.732-1.036-1.231
	c-0.247-0.5-0.415-1.048-0.504-1.646c-0.089-0.597-0.134-1.176-0.134-1.736c0-0.56,0.045-1.139,0.134-1.735
	c0.089-0.598,0.257-1.146,0.504-1.646c0.247-0.499,0.593-0.91,1.036-1.231C142.068,451.209,142.64,451.048,143.34,451.048z
	 M143.34,459.91c0.346,0,0.635-0.101,0.867-0.301c0.234-0.201,0.418-0.472,0.554-0.812s0.231-0.739,0.287-1.197
	c0.056-0.457,0.084-0.942,0.084-1.456c0-0.513-0.028-0.996-0.084-1.448c-0.056-0.453-0.151-0.852-0.287-1.197
	s-0.319-0.618-0.554-0.819c-0.232-0.2-0.521-0.301-0.867-0.301c-0.355,0-0.646,0.101-0.875,0.301
	c-0.229,0.201-0.411,0.474-0.546,0.819c-0.136,0.346-0.231,0.744-0.287,1.197c-0.056,0.452-0.084,0.936-0.084,1.448
	c0,0.514,0.028,0.999,0.084,1.456c0.056,0.458,0.151,0.856,0.287,1.197c0.135,0.341,0.317,0.611,0.546,0.812
	C142.693,459.81,142.984,459.91,143.34,459.91z"/>
<path d="M151.124,451.048c0.7,0,1.271,0.161,1.715,0.483c0.443,0.321,0.788,0.732,1.036,1.231c0.247,0.5,0.415,1.048,0.504,1.646
	c0.088,0.597,0.133,1.176,0.133,1.735c0,0.561-0.045,1.14-0.133,1.736c-0.089,0.598-0.257,1.146-0.504,1.646
	c-0.248,0.499-0.593,0.909-1.036,1.231s-1.015,0.483-1.715,0.483s-1.272-0.161-1.716-0.483s-0.788-0.732-1.035-1.231
	c-0.248-0.5-0.416-1.048-0.504-1.646c-0.089-0.597-0.133-1.176-0.133-1.736c0-0.56,0.044-1.139,0.133-1.735
	c0.088-0.598,0.256-1.146,0.504-1.646c0.247-0.499,0.592-0.91,1.035-1.231C149.852,451.209,150.424,451.048,151.124,451.048z
	 M151.124,459.91c0.345,0,0.634-0.101,0.868-0.301c0.232-0.201,0.418-0.472,0.553-0.812s0.23-0.739,0.287-1.197
	c0.056-0.457,0.084-0.942,0.084-1.456c0-0.513-0.028-0.996-0.084-1.448c-0.057-0.453-0.152-0.852-0.287-1.197
	s-0.32-0.618-0.553-0.819c-0.234-0.2-0.523-0.301-0.868-0.301c-0.354,0-0.646,0.101-0.875,0.301
	c-0.229,0.201-0.411,0.474-0.546,0.819c-0.136,0.346-0.23,0.744-0.287,1.197c-0.057,0.452-0.084,0.936-0.084,1.448
	c0,0.514,0.027,0.999,0.084,1.456c0.057,0.458,0.151,0.856,0.287,1.197c0.135,0.341,0.316,0.611,0.546,0.812
	C150.478,459.81,150.77,459.91,151.124,459.91z"/>
<path d="M129.41,155.949c-0.038-0.401-0.18-0.726-0.428-0.973c-0.247-0.247-0.58-0.371-1.001-0.371
	c-0.289,0-0.538,0.054-0.749,0.161c-0.21,0.107-0.387,0.25-0.531,0.427c-0.146,0.178-0.262,0.381-0.351,0.609
	s-0.161,0.469-0.217,0.721s-0.096,0.502-0.119,0.749s-0.044,0.479-0.062,0.693l0.027,0.027c0.215-0.392,0.512-0.684,0.89-0.875
	c0.378-0.19,0.786-0.287,1.225-0.287c0.485,0,0.919,0.084,1.302,0.252c0.383,0.169,0.707,0.399,0.974,0.693
	c0.266,0.294,0.469,0.642,0.608,1.043c0.141,0.401,0.21,0.836,0.21,1.302c0,0.477-0.076,0.917-0.23,1.323s-0.376,0.761-0.665,1.064
	c-0.289,0.303-0.635,0.539-1.036,0.707s-0.845,0.252-1.33,0.252c-0.719,0-1.309-0.133-1.771-0.399
	c-0.462-0.266-0.826-0.63-1.093-1.092c-0.266-0.462-0.45-1.003-0.553-1.624s-0.154-1.29-0.154-2.009
	c0-0.588,0.063-1.181,0.189-1.778c0.126-0.597,0.334-1.141,0.623-1.631s0.67-0.889,1.141-1.197c0.472-0.308,1.053-0.462,1.743-0.462
	c0.393,0,0.761,0.065,1.106,0.196c0.345,0.131,0.65,0.312,0.917,0.546c0.266,0.233,0.482,0.514,0.65,0.84
	c0.168,0.327,0.262,0.69,0.28,1.092H129.41z M127.87,162.138c0.289,0,0.541-0.059,0.756-0.175c0.215-0.117,0.395-0.269,0.539-0.455
	s0.252-0.404,0.322-0.651c0.069-0.247,0.104-0.502,0.104-0.763c0-0.262-0.035-0.514-0.104-0.756
	c-0.07-0.243-0.178-0.455-0.322-0.638c-0.145-0.182-0.324-0.329-0.539-0.44c-0.215-0.112-0.467-0.168-0.756-0.168
	c-0.29,0-0.544,0.054-0.764,0.161c-0.219,0.107-0.403,0.252-0.553,0.434s-0.262,0.395-0.336,0.637
	c-0.074,0.243-0.112,0.5-0.112,0.771s0.038,0.527,0.112,0.77c0.074,0.243,0.187,0.46,0.336,0.651s0.334,0.343,0.553,0.455
	C127.326,162.081,127.58,162.138,127.87,162.138z"/>
<path d="M135.556,153.275c0.7,0,1.272,0.161,1.716,0.483c0.442,0.321,0.788,0.732,1.035,1.231c0.248,0.5,0.416,1.048,0.505,1.646
	c0.088,0.597,0.133,1.176,0.133,1.735c0,0.561-0.045,1.14-0.133,1.736c-0.089,0.598-0.257,1.146-0.505,1.646
	c-0.247,0.499-0.593,0.909-1.035,1.231c-0.443,0.322-1.016,0.483-1.716,0.483c-0.699,0-1.271-0.161-1.715-0.483
	s-0.788-0.732-1.036-1.231c-0.247-0.5-0.415-1.048-0.504-1.646c-0.089-0.597-0.133-1.176-0.133-1.736
	c0-0.56,0.044-1.139,0.133-1.735c0.089-0.598,0.257-1.146,0.504-1.646c0.248-0.499,0.593-0.91,1.036-1.231
	C134.284,153.437,134.856,153.275,135.556,153.275z M135.556,162.138c0.346,0,0.635-0.101,0.868-0.301
	c0.233-0.201,0.418-0.472,0.554-0.812c0.135-0.341,0.23-0.739,0.286-1.197c0.057-0.457,0.084-0.942,0.084-1.456
	c0-0.513-0.027-0.996-0.084-1.448c-0.056-0.453-0.151-0.852-0.286-1.197c-0.136-0.346-0.32-0.618-0.554-0.819
	c-0.233-0.2-0.522-0.301-0.868-0.301c-0.354,0-0.646,0.101-0.875,0.301c-0.229,0.201-0.41,0.474-0.546,0.819
	c-0.135,0.346-0.23,0.744-0.287,1.197c-0.056,0.452-0.084,0.936-0.084,1.448c0,0.514,0.028,0.999,0.084,1.456
	c0.057,0.458,0.152,0.856,0.287,1.197c0.136,0.341,0.317,0.611,0.546,0.812C134.909,162.037,135.201,162.138,135.556,162.138z"/>
<path d="M144.979,155.949c-0.038-0.401-0.18-0.726-0.428-0.973c-0.247-0.247-0.58-0.371-1.001-0.371
	c-0.289,0-0.538,0.054-0.749,0.161c-0.21,0.107-0.387,0.25-0.531,0.427c-0.146,0.178-0.262,0.381-0.351,0.609
	s-0.161,0.469-0.217,0.721s-0.096,0.502-0.119,0.749s-0.044,0.479-0.062,0.693l0.027,0.027c0.215-0.392,0.512-0.684,0.89-0.875
	c0.378-0.19,0.786-0.287,1.225-0.287c0.485,0,0.919,0.084,1.302,0.252c0.383,0.169,0.707,0.399,0.974,0.693
	c0.266,0.294,0.469,0.642,0.608,1.043c0.141,0.401,0.21,0.836,0.21,1.302c0,0.477-0.076,0.917-0.23,1.323s-0.376,0.761-0.665,1.064
	c-0.289,0.303-0.635,0.539-1.036,0.707s-0.845,0.252-1.33,0.252c-0.719,0-1.309-0.133-1.771-0.399
	c-0.462-0.266-0.826-0.63-1.093-1.092c-0.266-0.462-0.45-1.003-0.553-1.624s-0.154-1.29-0.154-2.009
	c0-0.588,0.063-1.181,0.189-1.778c0.126-0.597,0.334-1.141,0.623-1.631s0.67-0.889,1.141-1.197c0.472-0.308,1.053-0.462,1.743-0.462
	c0.393,0,0.761,0.065,1.106,0.196c0.345,0.131,0.65,0.312,0.917,0.546c0.266,0.233,0.482,0.514,0.65,0.84
	c0.168,0.327,0.262,0.69,0.28,1.092H144.979z M143.438,162.138c0.289,0,0.541-0.059,0.756-0.175
	c0.215-0.117,0.395-0.269,0.539-0.455s0.252-0.404,0.322-0.651c0.069-0.247,0.104-0.502,0.104-0.763
	c0-0.262-0.035-0.514-0.104-0.756c-0.07-0.243-0.178-0.455-0.322-0.638c-0.145-0.182-0.324-0.329-0.539-0.44
	c-0.215-0.112-0.467-0.168-0.756-0.168c-0.29,0-0.544,0.054-0.764,0.161c-0.219,0.107-0.403,0.252-0.553,0.434
	s-0.262,0.395-0.336,0.637c-0.074,0.243-0.112,0.5-0.112,0.771s0.038,0.527,0.112,0.77c0.074,0.243,0.187,0.46,0.336,0.651
	s0.334,0.343,0.553,0.455C142.895,162.081,143.148,162.138,143.438,162.138z"/>
<path d="M151.123,153.275c0.7,0,1.272,0.161,1.716,0.483c0.442,0.321,0.788,0.732,1.035,1.231c0.248,0.5,0.416,1.048,0.505,1.646
	c0.088,0.597,0.133,1.176,0.133,1.735c0,0.561-0.045,1.14-0.133,1.736c-0.089,0.598-0.257,1.146-0.505,1.646
	c-0.247,0.499-0.593,0.909-1.035,1.231c-0.443,0.322-1.016,0.483-1.716,0.483c-0.699,0-1.271-0.161-1.715-0.483
	s-0.788-0.732-1.036-1.231c-0.247-0.5-0.415-1.048-0.504-1.646c-0.089-0.597-0.133-1.176-0.133-1.736
	c0-0.56,0.044-1.139,0.133-1.735c0.089-0.598,0.257-1.146,0.504-1.646c0.248-0.499,0.593-0.91,1.036-1.231
	C149.852,153.437,150.424,153.275,151.123,153.275z M151.123,162.138c0.346,0,0.635-0.101,0.868-0.301
	c0.233-0.201,0.418-0.472,0.554-0.812c0.135-0.341,0.23-0.739,0.286-1.197c0.057-0.457,0.084-0.942,0.084-1.456
	c0-0.513-0.027-0.996-0.084-1.448c-0.056-0.453-0.151-0.852-0.286-1.197c-0.136-0.346-0.32-0.618-0.554-0.819
	c-0.233-0.2-0.522-0.301-0.868-0.301c-0.354,0-0.646,0.101-0.875,0.301c-0.229,0.201-0.41,0.474-0.546,0.819
	c-0.135,0.346-0.23,0.744-0.287,1.197c-0.056,0.452-0.084,0.936-0.084,1.448c0,0.514,0.028,0.999,0.084,1.456
	c0.057,0.458,0.152,0.856,0.287,1.197c0.136,0.341,0.317,0.611,0.546,0.812C150.477,162.037,150.769,162.138,151.123,162.138z"/>
<path fill="#1E8A36" d="M114.572,583.092c-0.023,0.02-0.049,0.042-0.072,0.062v47.01l0.5,0.005l0.018-5.627
	c1.641-2.545,10.99-7.162,11.028-19.027C126.084,593.416,118.299,586.379,114.572,583.092z"/>
<path fill="#3CA746" d="M102.954,605.44c-0.038,11.865,9.282,16.538,10.905,19.093l-0.019,5.627l0.58,0.004h0.079v-47.01
	C110.726,586.443,102.993,593.417,102.954,605.44z"/>
<polygon fill="#ACAA87" points="115.159,630.169 113.841,630.169 113.841,624.564 114.5,623.059 115.159,624.564 "/>
</svg>
