<?xml version="1.0" encoding="utf-8"?>
<!-- Generator: Adobe Illustrator 14.0.0, SVG Export Plug-In  -->
<!DOCTYPE svg PUBLIC "-//W3C//DTD SVG 1.1//EN" "http://www.w3.org/Graphics/SVG/1.1/DTD/svg11.dtd" [
	<!ENTITY ns_flows "http://ns.adobe.com/Flows/1.0/">
]>
<svg version="1.1"
	 xmlns="http://www.w3.org/2000/svg" xmlns:xlink="http://www.w3.org/1999/xlink" xmlns:a="http://ns.adobe.com/AdobeSVGViewerExtensions/3.0/"
	 x="0px" y="0px" width="353px" height="160px" viewBox="0 0 353 160" enable-background="new 0 0 353 160" xml:space="preserve">
<defs>
</defs>
<rect x="42" fill="#394D54" width="126" height="126"/>
<rect x="54.384" y="12.594" fill="#20C2EF" width="101.23" height="101.636"/>
<polygon fill="#243A42" points="138.181,101.628 142.378,101.628 142.378,25.198 138.181,25.198 138.181,101.628 "/>
<polygon fill="#243A42" points="124.068,101.628 128.269,101.628 128.269,25.198 124.068,25.198 124.068,101.628 "/>
<polygon fill="#243A42" points="109.956,101.628 114.155,101.628 114.155,25.198 109.956,25.198 109.956,101.628 "/>
<polygon fill="#243A42" points="95.844,101.628 100.043,101.628 100.043,25.198 95.844,25.198 95.844,101.628 "/>
<polygon fill="#243A42" points="81.733,101.628 85.935,101.628 85.935,25.198 81.733,25.198 81.733,101.628 "/>
<polygon fill="#243A42" points="67.623,101.628 71.823,101.628 71.823,25.198 67.623,25.198 67.623,101.628 "/>
<circle fill="#FFFFFF" cx="105" cy="63" r="34.5"/>
<rect x="184" fill="#394D54" width="126" height="126"/>
<rect x="196.385" y="12.594" fill="#20C2EF" width="101.23" height="101.636"/>
<polygon fill="#243A42" points="280.182,101.628 284.379,101.628 284.379,25.198 280.182,25.198 280.182,101.628 "/>
<polygon fill="#243A42" points="266.068,101.628 270.27,101.628 270.27,25.198 266.068,25.198 266.068,101.628 "/>
<polygon fill="#243A42" points="251.955,101.628 256.154,101.628 256.154,25.198 251.955,25.198 251.955,101.628 "/>
<polygon fill="#243A42" points="237.844,101.628 242.043,101.628 242.043,25.198 237.844,25.198 237.844,101.628 "/>
<polygon fill="#243A42" points="223.733,101.628 227.935,101.628 227.935,25.198 223.733,25.198 223.733,101.628 "/>
<polygon fill="#243A42" points="209.623,101.628 213.823,101.628 213.823,25.198 209.623,25.198 209.623,101.628 "/>
<rect x="203" y="42.5" fill="#FFFFFF" width="88" height="41"/>
<path fill="#333333" d="M215.057,56.607c0.959,0,1.706,0.243,2.239,0.728s0.8,1.224,0.8,2.216c0,0.768-0.154,1.395-0.464,1.88
	c-0.31,0.486-0.79,0.797-1.44,0.936v0.032c0.576,0.085,0.998,0.272,1.265,0.56c0.267,0.288,0.433,0.752,0.496,1.392
	c0.021,0.214,0.037,0.446,0.048,0.696s0.021,0.531,0.032,0.84c0.021,0.608,0.054,1.072,0.096,1.392
	c0.063,0.32,0.202,0.539,0.416,0.656v0.096h-2.496c-0.117-0.16-0.192-0.344-0.224-0.552c-0.032-0.208-0.054-0.424-0.064-0.648
	l-0.064-2.192c-0.021-0.448-0.133-0.8-0.336-1.056c-0.202-0.256-0.543-0.384-1.023-0.384h-1.232v4.832H210.8V56.607H215.057z
	 M214.064,61.599c0.555,0,0.98-0.13,1.279-0.392c0.299-0.261,0.448-0.701,0.448-1.32c0-1.056-0.534-1.584-1.601-1.584h-1.088v3.296
	H214.064z"/>
<path fill="#333333" d="M219.52,61.775c0.117-0.565,0.31-1.038,0.576-1.416s0.616-0.667,1.049-0.864
	c0.432-0.197,0.962-0.296,1.592-0.296c0.661-0.01,1.21,0.078,1.647,0.264s0.784,0.472,1.04,0.856
	c0.256,0.384,0.438,0.859,0.544,1.424c0.106,0.565,0.16,1.227,0.16,1.984c0,0.736-0.059,1.387-0.176,1.952
	c-0.118,0.565-0.31,1.038-0.576,1.416c-0.267,0.379-0.616,0.659-1.048,0.84c-0.432,0.182-0.963,0.272-1.592,0.272
	c-0.662,0.011-1.211-0.072-1.648-0.248c-0.438-0.176-0.783-0.454-1.04-0.832c-0.256-0.379-0.438-0.854-0.544-1.424
	c-0.106-0.57-0.16-1.229-0.16-1.976C219.344,62.991,219.402,62.341,219.52,61.775z M221.584,64.943
	c0.021,0.374,0.072,0.693,0.152,0.96s0.199,0.475,0.359,0.624s0.373,0.224,0.641,0.224c0.447,0,0.757-0.235,0.928-0.704
	c0.17-0.469,0.256-1.243,0.256-2.32c0-1.077-0.086-1.85-0.256-2.32c-0.171-0.469-0.48-0.704-0.928-0.704
	c-0.268,0-0.48,0.075-0.641,0.224s-0.279,0.357-0.359,0.624s-0.131,0.587-0.152,0.96c-0.021,0.374-0.032,0.779-0.032,1.216
	C221.552,64.165,221.562,64.57,221.584,64.943z"/>
<path fill="#333333" d="M231.416,61.903c-0.026-0.203-0.074-0.387-0.145-0.552c-0.068-0.165-0.168-0.298-0.295-0.4
	c-0.129-0.101-0.299-0.152-0.512-0.152c-0.268,0-0.486,0.062-0.656,0.184c-0.172,0.123-0.299,0.304-0.385,0.544
	c-0.085,0.24-0.144,0.544-0.176,0.912c-0.031,0.368-0.048,0.803-0.048,1.304c0,0.534,0.017,0.99,0.048,1.368
	c0.032,0.379,0.091,0.69,0.176,0.936c0.086,0.246,0.205,0.424,0.36,0.536c0.154,0.112,0.354,0.168,0.601,0.168
	c0.373,0,0.645-0.16,0.815-0.48c0.171-0.32,0.256-0.832,0.256-1.536h2.112c0,1.131-0.254,1.992-0.76,2.584
	c-0.508,0.592-1.348,0.888-2.521,0.888c-0.555,0-1.038-0.066-1.448-0.2s-0.752-0.374-1.023-0.72
	c-0.272-0.346-0.478-0.811-0.616-1.392c-0.139-0.581-0.208-1.304-0.208-2.168c0-0.885,0.086-1.618,0.256-2.2s0.41-1.045,0.721-1.392
	c0.309-0.347,0.677-0.589,1.104-0.728c0.426-0.139,0.896-0.208,1.408-0.208c1.023,0,1.795,0.299,2.312,0.896
	c0.518,0.598,0.776,1.408,0.776,2.432h-2.112C231.456,62.314,231.443,62.106,231.416,61.903z"/>
<path fill="#333333" d="M237.008,62.639h0.032l2.224-3.216h2.432l-2.479,3.392l2.849,5.216h-2.433l-1.84-3.536l-0.784,1.024v2.512
	H234.8V56.607h2.208V62.639z"/>
<path fill="#333333" d="M246.256,56.607l1.632,8.064h0.032l1.648-8.064h3.408v11.424h-2.113v-9.12h-0.031l-2.032,9.12h-1.792
	l-2.031-9.12h-0.033v9.12h-2.111V56.607H246.256z"/>
<path fill="#333333" d="M254.447,61.775c0.117-0.565,0.31-1.038,0.576-1.416s0.616-0.667,1.049-0.864
	c0.432-0.197,0.962-0.296,1.592-0.296c0.661-0.01,1.21,0.078,1.647,0.264s0.784,0.472,1.04,0.856
	c0.256,0.384,0.438,0.859,0.544,1.424c0.106,0.565,0.16,1.227,0.16,1.984c0,0.736-0.059,1.387-0.176,1.952
	c-0.118,0.565-0.31,1.038-0.576,1.416c-0.267,0.379-0.616,0.659-1.048,0.84c-0.432,0.182-0.963,0.272-1.592,0.272
	c-0.662,0.011-1.211-0.072-1.648-0.248c-0.438-0.176-0.783-0.454-1.04-0.832c-0.256-0.379-0.438-0.854-0.544-1.424
	c-0.106-0.57-0.16-1.229-0.16-1.976C254.271,62.991,254.33,62.341,254.447,61.775z M256.512,64.943
	c0.021,0.374,0.072,0.693,0.152,0.96s0.199,0.475,0.359,0.624s0.373,0.224,0.641,0.224c0.447,0,0.757-0.235,0.928-0.704
	c0.17-0.469,0.256-1.243,0.256-2.32c0-1.077-0.086-1.85-0.256-2.32c-0.171-0.469-0.48-0.704-0.928-0.704
	c-0.268,0-0.48,0.075-0.641,0.224s-0.279,0.357-0.359,0.624s-0.131,0.587-0.152,0.96c-0.021,0.374-0.032,0.779-0.032,1.216
	C256.479,64.165,256.49,64.57,256.512,64.943z"/>
<path fill="#333333" d="M264.352,59.423v1.008h0.032c0.234-0.426,0.538-0.738,0.912-0.936c0.373-0.197,0.8-0.296,1.28-0.296
	c0.703,0,1.245,0.192,1.623,0.576c0.379,0.384,0.568,1.008,0.568,1.872v6.384h-2.207v-5.936c0-0.448-0.075-0.76-0.225-0.936
	c-0.149-0.176-0.39-0.264-0.721-0.264c-0.778,0-1.168,0.475-1.168,1.424v5.712h-2.207v-8.608H264.352z"/>
<path fill="#333333" d="M276.688,67.599c0,1.109-0.274,1.941-0.824,2.496c-0.549,0.555-1.469,0.832-2.76,0.832
	c-0.938,0-1.661-0.2-2.168-0.6c-0.506-0.4-0.76-0.968-0.76-1.704h2.112c0,0.277,0.112,0.496,0.336,0.656
	c0.106,0.074,0.222,0.133,0.344,0.176s0.253,0.064,0.392,0.064c0.449,0,0.764-0.144,0.944-0.432
	c0.182-0.288,0.272-0.646,0.272-1.072v-1.136h-0.032c-0.224,0.32-0.499,0.576-0.824,0.768c-0.325,0.192-0.664,0.288-1.016,0.288
	c-0.875,0-1.534-0.333-1.976-1c-0.443-0.667-0.664-1.784-0.664-3.352c0-0.501,0.029-1.013,0.088-1.536s0.181-0.995,0.367-1.416
	c0.188-0.421,0.459-0.765,0.816-1.032c0.357-0.267,0.834-0.4,1.432-0.4c0.31,0,0.629,0.085,0.961,0.256
	c0.33,0.171,0.602,0.48,0.815,0.928h0.032v-0.96h2.111V67.599z M272.312,64.847c0.025,0.267,0.08,0.504,0.159,0.712
	c0.08,0.208,0.192,0.374,0.337,0.496c0.144,0.123,0.332,0.184,0.567,0.184c0.234,0,0.429-0.061,0.584-0.184
	c0.154-0.123,0.277-0.291,0.368-0.504c0.09-0.213,0.154-0.472,0.191-0.776c0.037-0.304,0.057-0.637,0.057-1
	c0-1.045-0.083-1.787-0.248-2.224c-0.166-0.438-0.467-0.656-0.904-0.656c-0.246,0-0.443,0.054-0.592,0.16
	c-0.149,0.107-0.268,0.28-0.352,0.52c-0.086,0.24-0.143,0.56-0.168,0.96c-0.027,0.4-0.041,0.888-0.041,1.464
	C272.271,64.298,272.285,64.581,272.312,64.847z"/>
<path fill="#333333" d="M278.128,61.775c0.117-0.565,0.31-1.038,0.576-1.416s0.616-0.667,1.048-0.864
	c0.432-0.197,0.963-0.296,1.592-0.296c0.661-0.01,1.211,0.078,1.648,0.264c0.437,0.187,0.784,0.472,1.04,0.856
	c0.256,0.384,0.437,0.859,0.544,1.424c0.106,0.565,0.16,1.227,0.16,1.984c0,0.736-0.06,1.387-0.177,1.952s-0.31,1.038-0.575,1.416
	c-0.268,0.379-0.616,0.659-1.049,0.84c-0.432,0.182-0.962,0.272-1.592,0.272c-0.661,0.011-1.211-0.072-1.647-0.248
	c-0.438-0.176-0.784-0.454-1.04-0.832c-0.256-0.379-0.438-0.854-0.544-1.424c-0.107-0.57-0.16-1.229-0.16-1.976
	C277.952,62.991,278.011,62.341,278.128,61.775z M280.192,64.943c0.021,0.374,0.071,0.693,0.151,0.96s0.2,0.475,0.36,0.624
	s0.373,0.224,0.64,0.224c0.448,0,0.758-0.235,0.928-0.704c0.171-0.469,0.257-1.243,0.257-2.32c0-1.077-0.086-1.85-0.257-2.32
	c-0.17-0.469-0.479-0.704-0.928-0.704c-0.267,0-0.479,0.075-0.64,0.224s-0.28,0.357-0.36,0.624s-0.131,0.587-0.151,0.96
	c-0.022,0.374-0.032,0.779-0.032,1.216C280.16,64.165,280.17,64.57,280.192,64.943z"/>
<polygon fill="#999999" points="6.915,139.824 351.603,139.822 351.603,137.378 6.915,137.378 6.915,139.824 "/>
<polygon fill="#999999" points="352.915,160 352.915,98.673 326,98.673 326,107.588 343.999,107.588 343.999,151.085 8.915,151.085 
	8.915,107.588 26,107.588 26,98.673 0,98.673 0,160 "/>
<path fill="#1E8A36" d="M105.072,40.325c-0.023,0.02-0.049,0.042-0.072,0.062v47.01l0.5,0.005l0.018-5.627
	c1.641-2.545,10.99-7.162,11.028-19.027C116.583,50.649,108.798,43.612,105.072,40.325z"/>
<path fill="#3CA746" d="M93.454,62.673c-0.038,11.865,9.282,16.538,10.905,19.093l-0.019,5.627l0.58,0.004H105v-47.01
	C101.225,43.676,93.493,50.65,93.454,62.673z"/>
<polygon fill="#ACAA87" points="105.659,87.402 104.34,87.402 104.34,81.797 105,80.292 105.659,81.797 "/>
</svg>
